<?xml version="1.0" encoding="UTF-8" standalone="no"?><svg xmlns="http://www.w3.org/2000/svg" xmlns:xlink="http://www.w3.org/1999/xlink" clip-rule="evenodd" stroke-miterlimit="10" viewBox="0 0 1024 768"><desc>SVG generated by Keynote</desc><defs></defs><g transform="matrix(1.00, 0.00, -0.00, -1.00, 0.0, 768.0)"><path d="M 0.0 768.0 L 1024.0 768.0 L 1024.0 0.0 L 0.0 0.0 Z M 0.0 768.0 " fill="#FEFFFF"></path><text xml:space="preserve" font-family="Helvetica-Light,Helvetica" font-size="69.6" fill="#000000" transform="matrix(1.00, 0.00, -0.00, -1.00, 81.3, 358.0)">N</text><text xml:space="preserve" font-family="Helvetica-Light,Helvetica" font-size="69.6" fill="#000000" transform="matrix(1.00, 0.00, -0.00, -1.00, 131.6, 358.0)">e</text><text xml:space="preserve" font-family="Helvetica-Light,Helvetica" font-size="69.6" fill="#000000" transform="matrix(1.00, 0.00, -0.00, -1.00, 170.3, 358.0)">l</text><text xml:space="preserve" font-family="Helvetica-Light,Helvetica" font-size="69.6" fill="#000000" transform="matrix(1.00, 0.00, -0.00, -1.00, 185.7, 358.0)">l</text><text xml:space="preserve" font-family="Helvetica-Light,Helvetica" font-size="69.6" fill="#000000" transform="matrix(1.00, 0.00, -0.00, -1.00, 201.2, 358.0)">a</text><text xml:space="preserve" font-family="Helvetica-Light,Helvetica" font-size="69.6" fill="#000000" transform="matrix(1.00, 0.00, -0.00, -1.00, 239.9, 358.0)"> </text><text xml:space="preserve" font-family="Helvetica-Light,Helvetica" font-size="69.6" fill="#000000" transform="matrix(1.00, 0.00, -0.00, -1.00, 259.2, 358.0)">p</text><text xml:space="preserve" font-family="Helvetica-Light,Helvetica" font-size="69.6" fill="#000000" transform="matrix(1.00, 0.00, -0.00, -1.00, 301.7, 358.0)">u</text><text xml:space="preserve" font-family="Helvetica-Light,Helvetica" font-size="69.6" fill="#000000" transform="matrix(1.00, 0.00, -0.00, -1.00, 340.4, 358.0)">n</text><text xml:space="preserve" font-family="Helvetica-Light,Helvetica" font-size="69.6" fill="#000000" transform="matrix(1.00, 0.00, -0.00, -1.00, 379.1, 358.0)">t</text><text xml:space="preserve" font-family="Helvetica-Light,Helvetica" font-size="69.6" fill="#000000" transform="matrix(1.00, 0.00, -0.00, -1.00, 398.5, 358.0)">a</text><text xml:space="preserve" font-family="Helvetica-Light,Helvetica" font-size="69.6" fill="#000000" transform="matrix(1.00, 0.00, -0.00, -1.00, 437.2, 358.0)">t</text><text xml:space="preserve" font-family="Helvetica-Light,Helvetica" font-size="69.6" fill="#000000" transform="matrix(1.00, 0.00, -0.00, -1.00, 456.5, 358.0)">a</text><text xml:space="preserve" font-family="Helvetica-Light,Helvetica" font-size="69.6" fill="#000000" transform="matrix(1.00, 0.00, -0.00, -1.00, 495.2, 358.0)"> </text><text xml:space="preserve" font-family="Helvetica-Light,Helvetica" font-size="69.6" fill="#000000" transform="matrix(1.00, 0.00, -0.00, -1.00, 514.6, 358.0)">p</text><text xml:space="preserve" font-family="Helvetica-Light,Helvetica" font-size="69.6" fill="#000000" transform="matrix(1.00, 0.00, -0.00, -1.00, 557.1, 358.0)">r</text><text xml:space="preserve" font-family="Helvetica-Light,Helvetica" font-size="69.6" fill="#000000" transform="matrix(1.00, 0.00, -0.00, -1.00, 579.0, 358.0)">e</text><text xml:space="preserve" font-family="Helvetica-Light,Helvetica" font-size="69.6" fill="#000000" transform="matrix(1.00, 0.00, -0.00, -1.00, 617.7, 358.0)">c</text><text xml:space="preserve" font-family="Helvetica-Light,Helvetica" font-size="69.6" fill="#000000" transform="matrix(1.00, 0.00, -0.00, -1.00, 656.4, 358.0)">e</text><text xml:space="preserve" font-family="Helvetica-Light,Helvetica" font-size="69.6" fill="#000000" transform="matrix(1.00, 0.00, -0.00, -1.00, 695.1, 358.0)">d</text><text xml:space="preserve" font-family="Helvetica-Light,Helvetica" font-size="69.6" fill="#000000" transform="matrix(1.00, 0.00, -0.00, -1.00, 737.6, 358.0)">e</text><text xml:space="preserve" font-family="Helvetica-Light,Helvetica" font-size="69.6" fill="#000000" transform="matrix(1.00, 0.00, -0.00, -1.00, 776.3, 358.0)">n</text><text xml:space="preserve" font-family="Helvetica-Light,Helvetica" font-size="69.6" fill="#000000" transform="matrix(1.00, 0.00, -0.00, -1.00, 815.0, 358.0)">t</text><text xml:space="preserve" font-family="Helvetica-Light,Helvetica" font-size="69.6" fill="#000000" transform="matrix(1.00, 0.00, -0.00, -1.00, 834.4, 358.0)">e</text><text xml:space="preserve" font-family="Helvetica-Light,Helvetica" font-size="69.6" fill="#000000" transform="matrix(1.00, 0.00, -0.00, -1.00, 873.1, 358.0)">…</text></g></svg>