<?xml version="1.0" encoding="UTF-8" standalone="no"?><svg xmlns="http://www.w3.org/2000/svg" xmlns:xlink="http://www.w3.org/1999/xlink" clip-rule="evenodd" stroke-miterlimit="10" viewBox="0 0 1024 768"><desc>SVG generated by Keynote</desc><defs></defs><g transform="matrix(1.00, 0.00, -0.00, -1.00, 0.0, 768.0)"><path d="M 0.0 768.0 L 1024.0 768.0 L 1024.0 0.0 L 0.0 0.0 Z M 0.0 768.0 " fill="#FEFFFF"></path><text xml:space="preserve" font-family="Helvetica-Light,Helvetica" font-size="25.7" fill="#000000" transform="matrix(1.00, 0.00, -0.00, -1.00, 60.3, 597.4)">•</text><text xml:space="preserve" font-family="Helvetica-Light,Helvetica" font-size="34.2" fill="#000000" transform="matrix(1.00, 0.00, -0.00, -1.00, 93.6, 594.4)">S</text><text xml:space="preserve" font-family="Helvetica-Light,Helvetica" font-size="34.2" fill="#000000" transform="matrix(1.00, 0.00, -0.00, -1.00, 114.5, 594.4)">a</text><text xml:space="preserve" font-family="Helvetica-Light,Helvetica" font-size="34.2" fill="#000000" transform="matrix(1.00, 0.00, -0.00, -1.00, 133.5, 594.4)">l</text><text xml:space="preserve" font-family="Helvetica-Light,Helvetica" font-size="34.2" fill="#000000" transform="matrix(1.00, 0.00, -0.00, -1.00, 141.1, 594.4)">v</text><text xml:space="preserve" font-family="Helvetica-Light,Helvetica" font-size="34.2" fill="#000000" transform="matrix(1.00, 0.00, -0.00, -1.00, 158.2, 594.4)">a</text><text xml:space="preserve" font-family="Helvetica-Light,Helvetica" font-size="34.2" fill="#000000" transform="matrix(1.00, 0.00, -0.00, -1.00, 177.2, 594.4)"> </text><text xml:space="preserve" font-family="Helvetica-Light,Helvetica" font-size="34.2" fill="#000000" transform="matrix(1.00, 0.00, -0.00, -1.00, 186.7, 594.4)">i</text><text xml:space="preserve" font-family="Helvetica-Light,Helvetica" font-size="34.2" fill="#000000" transform="matrix(1.00, 0.00, -0.00, -1.00, 194.3, 594.4)">l</text><text xml:space="preserve" font-family="Helvetica-Light,Helvetica" font-size="34.2" fill="#000000" transform="matrix(1.00, 0.00, -0.00, -1.00, 201.9, 594.4)"> </text><text xml:space="preserve" font-family="Helvetica-Light,Helvetica" font-size="34.2" fill="#000000" transform="matrix(1.00, 0.00, -0.00, -1.00, 211.4, 594.4)">ﬁ</text><text xml:space="preserve" font-family="Helvetica-Light,Helvetica" font-size="34.2" fill="#000000" transform="matrix(1.00, 0.00, -0.00, -1.00, 228.5, 594.4)">l</text><text xml:space="preserve" font-family="Helvetica-Light,Helvetica" font-size="34.2" fill="#000000" transform="matrix(1.00, 0.00, -0.00, -1.00, 236.1, 594.4)">e</text><text xml:space="preserve" font-family="Helvetica-Light,Helvetica" font-size="34.2" fill="#000000" transform="matrix(1.00, 0.00, -0.00, -1.00, 255.1, 594.4)"> </text><text xml:space="preserve" font-family="Helvetica-Light,Helvetica" font-size="34.2" fill="#000000" transform="matrix(1.00, 0.00, -0.00, -1.00, 264.6, 594.4)">c</text><text xml:space="preserve" font-family="Helvetica-Light,Helvetica" font-size="34.2" fill="#000000" transform="matrix(1.00, 0.00, -0.00, -1.00, 283.6, 594.4)">o</text><text xml:space="preserve" font-family="Helvetica-Light,Helvetica" font-size="34.2" fill="#000000" transform="matrix(1.00, 0.00, -0.00, -1.00, 302.6, 594.4)">m</text><text xml:space="preserve" font-family="Helvetica-Light,Helvetica" font-size="34.2" fill="#000000" transform="matrix(1.00, 0.00, -0.00, -1.00, 331.1, 594.4)">e</text><text xml:space="preserve" font-family="Helvetica-Light,Helvetica" font-size="34.2" fill="#000000" transform="matrix(1.00, 0.00, -0.00, -1.00, 350.2, 594.4)"> </text><text xml:space="preserve" font-family="Helvetica-Light,Helvetica" font-size="34.2" fill="#000000" transform="matrix(1.00, 0.00, -0.00, -1.00, 359.7, 594.4)">t</text><text xml:space="preserve" font-family="Helvetica-Light,Helvetica" font-size="34.2" fill="#000000" transform="matrix(1.00, 0.00, -0.00, -1.00, 369.2, 594.4)">a</text><text xml:space="preserve" font-family="Helvetica-Light,Helvetica" font-size="34.2" fill="#000000" transform="matrix(1.00, 0.00, -0.00, -1.00, 388.2, 594.4)">s</text><text xml:space="preserve" font-family="Helvetica-Light,Helvetica" font-size="34.2" fill="#000000" transform="matrix(1.00, 0.00, -0.00, -1.00, 405.3, 594.4)">t</text><text xml:space="preserve" font-family="Helvetica-Light,Helvetica" font-size="34.2" fill="#000000" transform="matrix(1.00, 0.00, -0.00, -1.00, 414.8, 594.4)">i</text><text xml:space="preserve" font-family="Helvetica-Light,Helvetica" font-size="34.2" fill="#000000" transform="matrix(1.00, 0.00, -0.00, -1.00, 422.4, 594.4)">e</text><text xml:space="preserve" font-family="Helvetica-Light,Helvetica" font-size="34.2" fill="#000000" transform="matrix(1.00, 0.00, -0.00, -1.00, 441.4, 594.4)">r</text><text xml:space="preserve" font-family="Helvetica-Light,Helvetica" font-size="34.2" fill="#000000" transform="matrix(1.00, 0.00, -0.00, -1.00, 452.8, 594.4)">a</text><text xml:space="preserve" font-family="Helvetica-Light,Helvetica" font-size="34.2" fill="#000000" transform="matrix(1.00, 0.00, -0.00, -1.00, 471.8, 594.4)">2</text><text xml:space="preserve" font-family="Helvetica-Light,Helvetica" font-size="34.2" fill="#000000" transform="matrix(1.00, 0.00, -0.00, -1.00, 490.8, 594.4)">.</text><text xml:space="preserve" font-family="Helvetica-Light,Helvetica" font-size="34.2" fill="#000000" transform="matrix(1.00, 0.00, -0.00, -1.00, 500.3, 594.4)">p</text><text xml:space="preserve" font-family="Helvetica-Light,Helvetica" font-size="34.2" fill="#000000" transform="matrix(1.00, 0.00, -0.00, -1.00, 521.2, 594.4)">y</text><text xml:space="preserve" font-family="Helvetica-Light,Helvetica" font-size="34.2" fill="#000000" transform="matrix(1.00, 0.00, -0.00, -1.00, 538.3, 594.4)"> </text><text xml:space="preserve" font-family="Helvetica-Light,Helvetica" font-size="25.7" fill="#000000" transform="matrix(1.00, 0.00, -0.00, -1.00, 60.3, 516.5)">•</text><text xml:space="preserve" font-family="Helvetica-Light,Helvetica" font-size="34.2" fill="#000000" transform="matrix(1.00, 0.00, -0.00, -1.00, 93.6, 513.5)">E</text><text xml:space="preserve" font-family="Helvetica-Light,Helvetica" font-size="34.2" fill="#000000" transform="matrix(1.00, 0.00, -0.00, -1.00, 114.5, 513.5)">s</text><text xml:space="preserve" font-family="Helvetica-Light,Helvetica" font-size="34.2" fill="#000000" transform="matrix(1.00, 0.00, -0.00, -1.00, 131.6, 513.5)">e</text><text xml:space="preserve" font-family="Helvetica-Light,Helvetica" font-size="34.2" fill="#000000" transform="matrix(1.00, 0.00, -0.00, -1.00, 150.6, 513.5)">g</text><text xml:space="preserve" font-family="Helvetica-Light,Helvetica" font-size="34.2" fill="#000000" transform="matrix(1.00, 0.00, -0.00, -1.00, 171.5, 513.5)">u</text><text xml:space="preserve" font-family="Helvetica-Light,Helvetica" font-size="34.2" fill="#000000" transform="matrix(1.00, 0.00, -0.00, -1.00, 190.5, 513.5)">i</text><text xml:space="preserve" font-family="Helvetica-Light,Helvetica" font-size="34.2" fill="#000000" transform="matrix(1.00, 0.00, -0.00, -1.00, 198.1, 513.5)">l</text><text xml:space="preserve" font-family="Helvetica-Light,Helvetica" font-size="34.2" fill="#000000" transform="matrix(1.00, 0.00, -0.00, -1.00, 205.7, 513.5)">o</text><text xml:space="preserve" font-family="Helvetica-Light,Helvetica" font-size="34.2" fill="#000000" transform="matrix(1.00, 0.00, -0.00, -1.00, 224.7, 513.5)"> </text><text xml:space="preserve" font-family="Helvetica-Light,Helvetica" font-size="34.2" fill="#000000" transform="matrix(1.00, 0.00, -0.00, -1.00, 234.2, 513.5)">c</text><text xml:space="preserve" font-family="Helvetica-Light,Helvetica" font-size="34.2" fill="#000000" transform="matrix(1.00, 0.00, -0.00, -1.00, 253.2, 513.5)">o</text><text xml:space="preserve" font-family="Helvetica-Light,Helvetica" font-size="34.2" fill="#000000" transform="matrix(1.00, 0.00, -0.00, -1.00, 272.2, 513.5)">n</text><text xml:space="preserve" font-family="Helvetica-Light,Helvetica" font-size="34.2" fill="#000000" transform="matrix(1.00, 0.00, -0.00, -1.00, 291.3, 513.5)"> </text><text xml:space="preserve" font-family="Helvetica-Light,Helvetica" font-size="34.2" fill="#000000" transform="matrix(1.00, 0.00, -0.00, -1.00, 300.8, 513.5)"> </text><text xml:space="preserve" font-family="Helvetica-Light,Helvetica" font-size="25.7" fill="#000000" transform="matrix(1.00, 0.00, -0.00, -1.00, 95.3, 435.6)">•</text><text xml:space="preserve" font-family="Helvetica-Light,Helvetica" font-size="34.2" fill="#000000" transform="matrix(1.00, 0.00, -0.00, -1.00, 128.6, 432.6)">p</text><text xml:space="preserve" font-family="Helvetica-Light,Helvetica" font-size="34.2" fill="#000000" transform="matrix(1.00, 0.00, -0.00, -1.00, 149.5, 432.6)">y</text><text xml:space="preserve" font-family="Helvetica-Light,Helvetica" font-size="34.2" fill="#000000" transform="matrix(1.00, 0.00, -0.00, -1.00, 166.6, 432.6)">t</text><text xml:space="preserve" font-family="Helvetica-Light,Helvetica" font-size="34.2" fill="#000000" transform="matrix(1.00, 0.00, -0.00, -1.00, 176.1, 432.6)">h</text><text xml:space="preserve" font-family="Helvetica-Light,Helvetica" font-size="34.2" fill="#000000" transform="matrix(1.00, 0.00, -0.00, -1.00, 195.1, 432.6)">o</text><text xml:space="preserve" font-family="Helvetica-Light,Helvetica" font-size="34.2" fill="#000000" transform="matrix(1.00, 0.00, -0.00, -1.00, 214.1, 432.6)">n</text><text xml:space="preserve" font-family="Helvetica-Light,Helvetica" font-size="34.2" fill="#000000" transform="matrix(1.00, 0.00, -0.00, -1.00, 233.1, 432.6)"> </text><text xml:space="preserve" font-family="Helvetica-Light,Helvetica" font-size="34.2" fill="#000000" transform="matrix(1.00, 0.00, -0.00, -1.00, 242.6, 432.6)">t</text><text xml:space="preserve" font-family="Helvetica-Light,Helvetica" font-size="34.2" fill="#000000" transform="matrix(1.00, 0.00, -0.00, -1.00, 252.1, 432.6)">a</text><text xml:space="preserve" font-family="Helvetica-Light,Helvetica" font-size="34.2" fill="#000000" transform="matrix(1.00, 0.00, -0.00, -1.00, 271.2, 432.6)">s</text><text xml:space="preserve" font-family="Helvetica-Light,Helvetica" font-size="34.2" fill="#000000" transform="matrix(1.00, 0.00, -0.00, -1.00, 288.3, 432.6)">t</text><text xml:space="preserve" font-family="Helvetica-Light,Helvetica" font-size="34.2" fill="#000000" transform="matrix(1.00, 0.00, -0.00, -1.00, 297.8, 432.6)">i</text><text xml:space="preserve" font-family="Helvetica-Light,Helvetica" font-size="34.2" fill="#000000" transform="matrix(1.00, 0.00, -0.00, -1.00, 305.4, 432.6)">e</text><text xml:space="preserve" font-family="Helvetica-Light,Helvetica" font-size="34.2" fill="#000000" transform="matrix(1.00, 0.00, -0.00, -1.00, 324.4, 432.6)">r</text><text xml:space="preserve" font-family="Helvetica-Light,Helvetica" font-size="34.2" fill="#000000" transform="matrix(1.00, 0.00, -0.00, -1.00, 335.8, 432.6)">a</text><text xml:space="preserve" font-family="Helvetica-Light,Helvetica" font-size="34.2" fill="#000000" transform="matrix(1.00, 0.00, -0.00, -1.00, 354.8, 432.6)">2</text><text xml:space="preserve" font-family="Helvetica-Light,Helvetica" font-size="34.2" fill="#000000" transform="matrix(1.00, 0.00, -0.00, -1.00, 373.8, 432.6)">.</text><text xml:space="preserve" font-family="Helvetica-Light,Helvetica" font-size="34.2" fill="#000000" transform="matrix(1.00, 0.00, -0.00, -1.00, 383.3, 432.6)">p</text><text xml:space="preserve" font-family="Helvetica-Light,Helvetica" font-size="34.2" fill="#000000" transform="matrix(1.00, 0.00, -0.00, -1.00, 404.2, 432.6)">y</text><text xml:space="preserve" font-family="Helvetica-Light,Helvetica" font-size="34.2" fill="#000000" transform="matrix(1.00, 0.00, -0.00, -1.00, 421.3, 432.6)"> </text><text xml:space="preserve" font-family="Helvetica-Light,Helvetica" font-size="25.7" fill="#000000" transform="matrix(1.00, 0.00, -0.00, -1.00, 60.3, 273.8)">•</text><text xml:space="preserve" font-family="Helvetica-Light,Helvetica" font-size="34.2" fill="#000000" transform="matrix(1.00, 0.00, -0.00, -1.00, 93.6, 270.8)">M</text><text xml:space="preserve" font-family="Helvetica-Light,Helvetica" font-size="34.2" fill="#000000" transform="matrix(1.00, 0.00, -0.00, -1.00, 122.1, 270.8)">o</text><text xml:space="preserve" font-family="Helvetica-Light,Helvetica" font-size="34.2" fill="#000000" transform="matrix(1.00, 0.00, -0.00, -1.00, 141.1, 270.8)">d</text><text xml:space="preserve" font-family="Helvetica-Light,Helvetica" font-size="34.2" fill="#000000" transform="matrix(1.00, 0.00, -0.00, -1.00, 162.0, 270.8)">i</text><text xml:space="preserve" font-family="Helvetica-Light,Helvetica" font-size="34.2" fill="#000000" transform="matrix(1.00, 0.00, -0.00, -1.00, 169.6, 270.8)">ﬁ</text><text xml:space="preserve" font-family="Helvetica-Light,Helvetica" font-size="34.2" fill="#000000" transform="matrix(1.00, 0.00, -0.00, -1.00, 186.7, 270.8)">c</text><text xml:space="preserve" font-family="Helvetica-Light,Helvetica" font-size="34.2" fill="#000000" transform="matrix(1.00, 0.00, -0.00, -1.00, 205.7, 270.8)">a</text><text xml:space="preserve" font-family="Helvetica-Light,Helvetica" font-size="34.2" fill="#000000" transform="matrix(1.00, 0.00, -0.00, -1.00, 224.7, 270.8)"> </text><text xml:space="preserve" font-family="Helvetica-Light,Helvetica" font-size="34.2" fill="#000000" transform="matrix(1.00, 0.00, -0.00, -1.00, 234.2, 270.8)">i</text><text xml:space="preserve" font-family="Helvetica-Light,Helvetica" font-size="34.2" fill="#000000" transform="matrix(1.00, 0.00, -0.00, -1.00, 241.8, 270.8)">l</text><text xml:space="preserve" font-family="Helvetica-Light,Helvetica" font-size="34.2" fill="#000000" transform="matrix(1.00, 0.00, -0.00, -1.00, 249.4, 270.8)"> </text><text xml:space="preserve" font-family="Helvetica-Light,Helvetica" font-size="34.2" fill="#000000" transform="matrix(1.00, 0.00, -0.00, -1.00, 258.9, 270.8)">p</text><text xml:space="preserve" font-family="Helvetica-Light,Helvetica" font-size="34.2" fill="#000000" transform="matrix(1.00, 0.00, -0.00, -1.00, 279.8, 270.8)">r</text><text xml:space="preserve" font-family="Helvetica-Light,Helvetica" font-size="34.2" fill="#000000" transform="matrix(1.00, 0.00, -0.00, -1.00, 290.6, 270.8)">o</text><text xml:space="preserve" font-family="Helvetica-Light,Helvetica" font-size="34.2" fill="#000000" transform="matrix(1.00, 0.00, -0.00, -1.00, 309.6, 270.8)">g</text><text xml:space="preserve" font-family="Helvetica-Light,Helvetica" font-size="34.2" fill="#000000" transform="matrix(1.00, 0.00, -0.00, -1.00, 330.5, 270.8)">r</text><text xml:space="preserve" font-family="Helvetica-Light,Helvetica" font-size="34.2" fill="#000000" transform="matrix(1.00, 0.00, -0.00, -1.00, 341.9, 270.8)">a</text><text xml:space="preserve" font-family="Helvetica-Light,Helvetica" font-size="34.2" fill="#000000" transform="matrix(1.00, 0.00, -0.00, -1.00, 360.9, 270.8)">m</text><text xml:space="preserve" font-family="Helvetica-Light,Helvetica" font-size="34.2" fill="#000000" transform="matrix(1.00, 0.00, -0.00, -1.00, 389.4, 270.8)">m</text><text xml:space="preserve" font-family="Helvetica-Light,Helvetica" font-size="34.2" fill="#000000" transform="matrix(1.00, 0.00, -0.00, -1.00, 417.9, 270.8)">a</text><text xml:space="preserve" font-family="Helvetica-Light,Helvetica" font-size="34.2" fill="#000000" transform="matrix(1.00, 0.00, -0.00, -1.00, 436.9, 270.8)"> </text><text xml:space="preserve" font-family="Helvetica-Light,Helvetica" font-size="34.2" fill="#000000" transform="matrix(1.00, 0.00, -0.00, -1.00, 446.4, 270.8)">p</text><text xml:space="preserve" font-family="Helvetica-Light,Helvetica" font-size="34.2" fill="#000000" transform="matrix(1.00, 0.00, -0.00, -1.00, 467.3, 270.8)">e</text><text xml:space="preserve" font-family="Helvetica-Light,Helvetica" font-size="34.2" fill="#000000" transform="matrix(1.00, 0.00, -0.00, -1.00, 486.3, 270.8)">r</text><text xml:space="preserve" font-family="Helvetica-Light,Helvetica" font-size="34.2" fill="#000000" transform="matrix(1.00, 0.00, -0.00, -1.00, 497.7, 270.8)"> </text><text xml:space="preserve" font-family="Helvetica-Light,Helvetica" font-size="34.2" fill="#000000" transform="matrix(1.00, 0.00, -0.00, -1.00, 507.2, 270.8)">c</text><text xml:space="preserve" font-family="Helvetica-Light,Helvetica" font-size="34.2" fill="#000000" transform="matrix(1.00, 0.00, -0.00, -1.00, 526.2, 270.8)">h</text><text xml:space="preserve" font-family="Helvetica-Light,Helvetica" font-size="34.2" fill="#000000" transform="matrix(1.00, 0.00, -0.00, -1.00, 545.2, 270.8)">i</text><text xml:space="preserve" font-family="Helvetica-Light,Helvetica" font-size="34.2" fill="#000000" transform="matrix(1.00, 0.00, -0.00, -1.00, 552.8, 270.8)">e</text><text xml:space="preserve" font-family="Helvetica-Light,Helvetica" font-size="34.2" fill="#000000" transform="matrix(1.00, 0.00, -0.00, -1.00, 571.8, 270.8)">d</text><text xml:space="preserve" font-family="Helvetica-Light,Helvetica" font-size="34.2" fill="#000000" transform="matrix(1.00, 0.00, -0.00, -1.00, 592.7, 270.8)">e</text><text xml:space="preserve" font-family="Helvetica-Light,Helvetica" font-size="34.2" fill="#000000" transform="matrix(1.00, 0.00, -0.00, -1.00, 611.7, 270.8)">r</text><text xml:space="preserve" font-family="Helvetica-Light,Helvetica" font-size="34.2" fill="#000000" transform="matrix(1.00, 0.00, -0.00, -1.00, 622.5, 270.8)">e</text><text xml:space="preserve" font-family="Helvetica-Light,Helvetica" font-size="34.2" fill="#000000" transform="matrix(1.00, 0.00, -0.00, -1.00, 641.5, 270.8)"> </text><text xml:space="preserve" font-family="Helvetica-Light,Helvetica" font-size="34.2" fill="#000000" transform="matrix(1.00, 0.00, -0.00, -1.00, 651.0, 270.8)">p</text><text xml:space="preserve" font-family="Helvetica-Light,Helvetica" font-size="34.2" fill="#000000" transform="matrix(1.00, 0.00, -0.00, -1.00, 671.9, 270.8)">i</text><text xml:space="preserve" font-family="Helvetica-Light,Helvetica" font-size="34.2" fill="#000000" transform="matrix(1.00, 0.00, -0.00, -1.00, 679.5, 270.8)">u</text><text xml:space="preserve" font-family="Helvetica-Light,Helvetica" font-size="34.2" fill="#000000" transform="matrix(1.00, 0.00, -0.00, -1.00, 698.5, 270.8)">’</text><text xml:space="preserve" font-family="Helvetica-Light,Helvetica" font-size="34.2" fill="#000000" transform="matrix(1.00, 0.00, -0.00, -1.00, 706.1, 270.8)"> </text><text xml:space="preserve" font-family="Helvetica-Light,Helvetica" font-size="34.2" fill="#000000" transform="matrix(1.00, 0.00, -0.00, -1.00, 715.6, 270.8)">i</text><text xml:space="preserve" font-family="Helvetica-Light,Helvetica" font-size="34.2" fill="#000000" transform="matrix(1.00, 0.00, -0.00, -1.00, 723.2, 270.8)">n</text><text xml:space="preserve" font-family="Helvetica-Light,Helvetica" font-size="34.2" fill="#000000" transform="matrix(1.00, 0.00, -0.00, -1.00, 742.3, 270.8)">f</text><text xml:space="preserve" font-family="Helvetica-Light,Helvetica" font-size="34.2" fill="#000000" transform="matrix(1.00, 0.00, -0.00, -1.00, 751.8, 270.8)">o</text><text xml:space="preserve" font-family="Helvetica-Light,Helvetica" font-size="34.2" fill="#000000" transform="matrix(1.00, 0.00, -0.00, -1.00, 770.8, 270.8)">r</text><text xml:space="preserve" font-family="Helvetica-Light,Helvetica" font-size="34.2" fill="#000000" transform="matrix(1.00, 0.00, -0.00, -1.00, 782.8, 270.8)">m</text><text xml:space="preserve" font-family="Helvetica-Light,Helvetica" font-size="34.2" fill="#000000" transform="matrix(1.00, 0.00, -0.00, -1.00, 811.3, 270.8)">a</text><text xml:space="preserve" font-family="Helvetica-Light,Helvetica" font-size="34.2" fill="#000000" transform="matrix(1.00, 0.00, -0.00, -1.00, 830.3, 270.8)">z</text><text xml:space="preserve" font-family="Helvetica-Light,Helvetica" font-size="34.2" fill="#000000" transform="matrix(1.00, 0.00, -0.00, -1.00, 847.4, 270.8)">i</text><text xml:space="preserve" font-family="Helvetica-Light,Helvetica" font-size="34.2" fill="#000000" transform="matrix(1.00, 0.00, -0.00, -1.00, 855.0, 270.8)">o</text><text xml:space="preserve" font-family="Helvetica-Light,Helvetica" font-size="34.2" fill="#000000" transform="matrix(1.00, 0.00, -0.00, -1.00, 874.0, 270.8)">n</text><text xml:space="preserve" font-family="Helvetica-Light,Helvetica" font-size="34.2" fill="#000000" transform="matrix(1.00, 0.00, -0.00, -1.00, 893.0, 270.8)">i</text><text xml:space="preserve" font-family="Helvetica-Light,Helvetica" font-size="34.2" fill="#000000" transform="matrix(1.00, 0.00, -0.00, -1.00, 900.6, 270.8)"> </text><text xml:space="preserve" font-family="Helvetica-Light,Helvetica" font-size="25.7" fill="#000000" transform="matrix(1.00, 0.00, -0.00, -1.00, 60.3, 192.9)">•</text><text xml:space="preserve" font-family="Helvetica-Light,Helvetica" font-size="34.2" fill="#000000" transform="matrix(1.00, 0.00, -0.00, -1.00, 93.6, 189.9)">M</text><text xml:space="preserve" font-family="Helvetica-Light,Helvetica" font-size="34.2" fill="#000000" transform="matrix(1.00, 0.00, -0.00, -1.00, 122.1, 189.9)">o</text><text xml:space="preserve" font-family="Helvetica-Light,Helvetica" font-size="34.2" fill="#000000" transform="matrix(1.00, 0.00, -0.00, -1.00, 141.1, 189.9)">d</text><text xml:space="preserve" font-family="Helvetica-Light,Helvetica" font-size="34.2" fill="#000000" transform="matrix(1.00, 0.00, -0.00, -1.00, 162.0, 189.9)">i</text><text xml:space="preserve" font-family="Helvetica-Light,Helvetica" font-size="34.2" fill="#000000" transform="matrix(1.00, 0.00, -0.00, -1.00, 169.6, 189.9)">ﬁ</text><text xml:space="preserve" font-family="Helvetica-Light,Helvetica" font-size="34.2" fill="#000000" transform="matrix(1.00, 0.00, -0.00, -1.00, 186.7, 189.9)">c</text><text xml:space="preserve" font-family="Helvetica-Light,Helvetica" font-size="34.2" fill="#000000" transform="matrix(1.00, 0.00, -0.00, -1.00, 205.7, 189.9)">a</text><text xml:space="preserve" font-family="Helvetica-Light,Helvetica" font-size="34.2" fill="#000000" transform="matrix(1.00, 0.00, -0.00, -1.00, 224.7, 189.9)"> </text><text xml:space="preserve" font-family="Helvetica-Light,Helvetica" font-size="34.2" fill="#000000" transform="matrix(1.00, 0.00, -0.00, -1.00, 234.2, 189.9)">i</text><text xml:space="preserve" font-family="Helvetica-Light,Helvetica" font-size="34.2" fill="#000000" transform="matrix(1.00, 0.00, -0.00, -1.00, 241.8, 189.9)">l</text><text xml:space="preserve" font-family="Helvetica-Light,Helvetica" font-size="34.2" fill="#000000" transform="matrix(1.00, 0.00, -0.00, -1.00, 249.4, 189.9)"> </text><text xml:space="preserve" font-family="Helvetica-Light,Helvetica" font-size="34.2" fill="#000000" transform="matrix(1.00, 0.00, -0.00, -1.00, 258.9, 189.9)">p</text><text xml:space="preserve" font-family="Helvetica-Light,Helvetica" font-size="34.2" fill="#000000" transform="matrix(1.00, 0.00, -0.00, -1.00, 279.8, 189.9)">r</text><text xml:space="preserve" font-family="Helvetica-Light,Helvetica" font-size="34.2" fill="#000000" transform="matrix(1.00, 0.00, -0.00, -1.00, 290.6, 189.9)">o</text><text xml:space="preserve" font-family="Helvetica-Light,Helvetica" font-size="34.2" fill="#000000" transform="matrix(1.00, 0.00, -0.00, -1.00, 309.6, 189.9)">g</text><text xml:space="preserve" font-family="Helvetica-Light,Helvetica" font-size="34.2" fill="#000000" transform="matrix(1.00, 0.00, -0.00, -1.00, 330.5, 189.9)">r</text><text xml:space="preserve" font-family="Helvetica-Light,Helvetica" font-size="34.2" fill="#000000" transform="matrix(1.00, 0.00, -0.00, -1.00, 341.9, 189.9)">a</text><text xml:space="preserve" font-family="Helvetica-Light,Helvetica" font-size="34.2" fill="#000000" transform="matrix(1.00, 0.00, -0.00, -1.00, 360.9, 189.9)">m</text><text xml:space="preserve" font-family="Helvetica-Light,Helvetica" font-size="34.2" fill="#000000" transform="matrix(1.00, 0.00, -0.00, -1.00, 389.4, 189.9)">m</text><text xml:space="preserve" font-family="Helvetica-Light,Helvetica" font-size="34.2" fill="#000000" transform="matrix(1.00, 0.00, -0.00, -1.00, 417.9, 189.9)">a</text><text xml:space="preserve" font-family="Helvetica-Light,Helvetica" font-size="34.2" fill="#000000" transform="matrix(1.00, 0.00, -0.00, -1.00, 436.9, 189.9)"> </text><text xml:space="preserve" font-family="Helvetica-Light,Helvetica" font-size="34.2" fill="#000000" transform="matrix(1.00, 0.00, -0.00, -1.00, 446.4, 189.9)">p</text><text xml:space="preserve" font-family="Helvetica-Light,Helvetica" font-size="34.2" fill="#000000" transform="matrix(1.00, 0.00, -0.00, -1.00, 467.3, 189.9)">e</text><text xml:space="preserve" font-family="Helvetica-Light,Helvetica" font-size="34.2" fill="#000000" transform="matrix(1.00, 0.00, -0.00, -1.00, 486.3, 189.9)">r</text><text xml:space="preserve" font-family="Helvetica-Light,Helvetica" font-size="34.2" fill="#000000" transform="matrix(1.00, 0.00, -0.00, -1.00, 497.7, 189.9)"> </text><text xml:space="preserve" font-family="Helvetica-Light,Helvetica" font-size="34.2" fill="#000000" transform="matrix(1.00, 0.00, -0.00, -1.00, 507.2, 189.9)">v</text><text xml:space="preserve" font-family="Helvetica-Light,Helvetica" font-size="34.2" fill="#000000" transform="matrix(1.00, 0.00, -0.00, -1.00, 524.3, 189.9)">i</text><text xml:space="preserve" font-family="Helvetica-Light,Helvetica" font-size="34.2" fill="#000000" transform="matrix(1.00, 0.00, -0.00, -1.00, 531.9, 189.9)">s</text><text xml:space="preserve" font-family="Helvetica-Light,Helvetica" font-size="34.2" fill="#000000" transform="matrix(1.00, 0.00, -0.00, -1.00, 549.0, 189.9)">u</text><text xml:space="preserve" font-family="Helvetica-Light,Helvetica" font-size="34.2" fill="#000000" transform="matrix(1.00, 0.00, -0.00, -1.00, 568.0, 189.9)">a</text><text xml:space="preserve" font-family="Helvetica-Light,Helvetica" font-size="34.2" fill="#000000" transform="matrix(1.00, 0.00, -0.00, -1.00, 587.0, 189.9)">l</text><text xml:space="preserve" font-family="Helvetica-Light,Helvetica" font-size="34.2" fill="#000000" transform="matrix(1.00, 0.00, -0.00, -1.00, 594.6, 189.9)">i</text><text xml:space="preserve" font-family="Helvetica-Light,Helvetica" font-size="34.2" fill="#000000" transform="matrix(1.00, 0.00, -0.00, -1.00, 602.2, 189.9)">z</text><text xml:space="preserve" font-family="Helvetica-Light,Helvetica" font-size="34.2" fill="#000000" transform="matrix(1.00, 0.00, -0.00, -1.00, 619.3, 189.9)">z</text><text xml:space="preserve" font-family="Helvetica-Light,Helvetica" font-size="34.2" fill="#000000" transform="matrix(1.00, 0.00, -0.00, -1.00, 636.4, 189.9)">a</text><text xml:space="preserve" font-family="Helvetica-Light,Helvetica" font-size="34.2" fill="#000000" transform="matrix(1.00, 0.00, -0.00, -1.00, 655.4, 189.9)">r</text><text xml:space="preserve" font-family="Helvetica-Light,Helvetica" font-size="34.2" fill="#000000" transform="matrix(1.00, 0.00, -0.00, -1.00, 666.2, 189.9)">e</text><text xml:space="preserve" font-family="Helvetica-Light,Helvetica" font-size="34.2" fill="#000000" transform="matrix(1.00, 0.00, -0.00, -1.00, 685.2, 189.9)"> </text><text xml:space="preserve" font-family="Helvetica-Light,Helvetica" font-size="34.2" fill="#000000" transform="matrix(1.00, 0.00, -0.00, -1.00, 694.7, 189.9)">l</text><text xml:space="preserve" font-family="Helvetica-Light,Helvetica" font-size="34.2" fill="#000000" transform="matrix(1.00, 0.00, -0.00, -1.00, 702.3, 189.9)">e</text><text xml:space="preserve" font-family="Helvetica-Light,Helvetica" font-size="34.2" fill="#000000" transform="matrix(1.00, 0.00, -0.00, -1.00, 721.3, 189.9)"> </text><text xml:space="preserve" font-family="Helvetica-Light,Helvetica" font-size="34.2" fill="#000000" transform="matrix(1.00, 0.00, -0.00, -1.00, 730.8, 189.9)">i</text><text xml:space="preserve" font-family="Helvetica-Light,Helvetica" font-size="34.2" fill="#000000" transform="matrix(1.00, 0.00, -0.00, -1.00, 738.4, 189.9)">n</text><text xml:space="preserve" font-family="Helvetica-Light,Helvetica" font-size="34.2" fill="#000000" transform="matrix(1.00, 0.00, -0.00, -1.00, 757.4, 189.9)">f</text><text xml:space="preserve" font-family="Helvetica-Light,Helvetica" font-size="34.2" fill="#000000" transform="matrix(1.00, 0.00, -0.00, -1.00, 766.9, 189.9)">o</text><text xml:space="preserve" font-family="Helvetica-Light,Helvetica" font-size="34.2" fill="#000000" transform="matrix(1.00, 0.00, -0.00, -1.00, 786.0, 189.9)">r</text><text xml:space="preserve" font-family="Helvetica-Light,Helvetica" font-size="34.2" fill="#000000" transform="matrix(1.00, 0.00, -0.00, -1.00, 798.0, 189.9)">m</text><text xml:space="preserve" font-family="Helvetica-Light,Helvetica" font-size="34.2" fill="#000000" transform="matrix(1.00, 0.00, -0.00, -1.00, 826.5, 189.9)">a</text><text xml:space="preserve" font-family="Helvetica-Light,Helvetica" font-size="34.2" fill="#000000" transform="matrix(1.00, 0.00, -0.00, -1.00, 845.5, 189.9)">z</text><text xml:space="preserve" font-family="Helvetica-Light,Helvetica" font-size="34.2" fill="#000000" transform="matrix(1.00, 0.00, -0.00, -1.00, 862.6, 189.9)">i</text><text xml:space="preserve" font-family="Helvetica-Light,Helvetica" font-size="34.2" fill="#000000" transform="matrix(1.00, 0.00, -0.00, -1.00, 870.2, 189.9)">o</text><text xml:space="preserve" font-family="Helvetica-Light,Helvetica" font-size="34.2" fill="#000000" transform="matrix(1.00, 0.00, -0.00, -1.00, 889.2, 189.9)">n</text><text xml:space="preserve" font-family="Helvetica-Light,Helvetica" font-size="34.2" fill="#000000" transform="matrix(1.00, 0.00, -0.00, -1.00, 908.2, 189.9)">i</text><text xml:space="preserve" font-family="Helvetica-Light,Helvetica" font-size="34.2" fill="#000000" transform="matrix(1.00, 0.00, -0.00, -1.00, 915.8, 189.9)"> </text><text xml:space="preserve" font-family="Helvetica-Light,Helvetica" font-size="34.2" fill="#000000" transform="matrix(1.00, 0.00, -0.00, -1.00, 93.6, 148.9)">i</text><text xml:space="preserve" font-family="Helvetica-Light,Helvetica" font-size="34.2" fill="#000000" transform="matrix(1.00, 0.00, -0.00, -1.00, 101.2, 148.9)">n</text><text xml:space="preserve" font-family="Helvetica-Light,Helvetica" font-size="34.2" fill="#000000" transform="matrix(1.00, 0.00, -0.00, -1.00, 120.2, 148.9)"> </text><text xml:space="preserve" font-family="Helvetica-Light,Helvetica" font-size="34.2" fill="#000000" transform="matrix(1.00, 0.00, -0.00, -1.00, 129.7, 148.9)">u</text><text xml:space="preserve" font-family="Helvetica-Light,Helvetica" font-size="34.2" fill="#000000" transform="matrix(1.00, 0.00, -0.00, -1.00, 148.7, 148.9)">n</text><text xml:space="preserve" font-family="Helvetica-Light,Helvetica" font-size="34.2" fill="#000000" transform="matrix(1.00, 0.00, -0.00, -1.00, 167.7, 148.9)">a</text><text xml:space="preserve" font-family="Helvetica-Light,Helvetica" font-size="34.2" fill="#000000" transform="matrix(1.00, 0.00, -0.00, -1.00, 186.7, 148.9)"> </text><text xml:space="preserve" font-family="Helvetica-Light,Helvetica" font-size="34.2" fill="#000000" transform="matrix(1.00, 0.00, -0.00, -1.00, 196.3, 148.9)">s</text><text xml:space="preserve" font-family="Helvetica-Light,Helvetica" font-size="34.2" fill="#000000" transform="matrix(1.00, 0.00, -0.00, -1.00, 213.4, 148.9)">i</text><text xml:space="preserve" font-family="Helvetica-Light,Helvetica" font-size="34.2" fill="#000000" transform="matrix(1.00, 0.00, -0.00, -1.00, 220.9, 148.9)">n</text><text xml:space="preserve" font-family="Helvetica-Light,Helvetica" font-size="34.2" fill="#000000" transform="matrix(1.00, 0.00, -0.00, -1.00, 240.0, 148.9)">g</text><text xml:space="preserve" font-family="Helvetica-Light,Helvetica" font-size="34.2" fill="#000000" transform="matrix(1.00, 0.00, -0.00, -1.00, 260.9, 148.9)">o</text><text xml:space="preserve" font-family="Helvetica-Light,Helvetica" font-size="34.2" fill="#000000" transform="matrix(1.00, 0.00, -0.00, -1.00, 279.9, 148.9)">l</text><text xml:space="preserve" font-family="Helvetica-Light,Helvetica" font-size="34.2" fill="#000000" transform="matrix(1.00, 0.00, -0.00, -1.00, 287.5, 148.9)">a</text><text xml:space="preserve" font-family="Helvetica-Light,Helvetica" font-size="34.2" fill="#000000" transform="matrix(1.00, 0.00, -0.00, -1.00, 306.5, 148.9)"> </text><text xml:space="preserve" font-family="Helvetica-Light,Helvetica" font-size="34.2" fill="#000000" transform="matrix(1.00, 0.00, -0.00, -1.00, 316.0, 148.9)">r</text><text xml:space="preserve" font-family="Helvetica-Light,Helvetica" font-size="34.2" fill="#000000" transform="matrix(1.00, 0.00, -0.00, -1.00, 327.4, 148.9)">i</text><text xml:space="preserve" font-family="Helvetica-Light,Helvetica" font-size="34.2" fill="#000000" transform="matrix(1.00, 0.00, -0.00, -1.00, 335.0, 148.9)">g</text><text xml:space="preserve" font-family="Helvetica-Light,Helvetica" font-size="34.2" fill="#000000" transform="matrix(1.00, 0.00, -0.00, -1.00, 355.9, 148.9)">a</text><text xml:space="preserve" font-family="Helvetica-Light,Helvetica" font-size="34.2" fill="#000000" transform="matrix(1.00, 0.00, -0.00, -1.00, 374.9, 148.9)">,</text><text xml:space="preserve" font-family="Helvetica-Light,Helvetica" font-size="34.2" fill="#000000" transform="matrix(1.00, 0.00, -0.00, -1.00, 384.4, 148.9)"> </text><text xml:space="preserve" font-family="Helvetica-Light,Helvetica" font-size="34.2" fill="#000000" transform="matrix(1.00, 0.00, -0.00, -1.00, 393.9, 148.9)">s</text><text xml:space="preserve" font-family="Helvetica-Light,Helvetica" font-size="34.2" fill="#000000" transform="matrix(1.00, 0.00, -0.00, -1.00, 411.0, 148.9)">e</text><text xml:space="preserve" font-family="Helvetica-Light,Helvetica" font-size="34.2" fill="#000000" transform="matrix(1.00, 0.00, -0.00, -1.00, 430.0, 148.9)">p</text><text xml:space="preserve" font-family="Helvetica-Light,Helvetica" font-size="34.2" fill="#000000" transform="matrix(1.00, 0.00, -0.00, -1.00, 450.9, 148.9)">a</text><text xml:space="preserve" font-family="Helvetica-Light,Helvetica" font-size="34.2" fill="#000000" transform="matrix(1.00, 0.00, -0.00, -1.00, 469.9, 148.9)">r</text><text xml:space="preserve" font-family="Helvetica-Light,Helvetica" font-size="34.2" fill="#000000" transform="matrix(1.00, 0.00, -0.00, -1.00, 481.3, 148.9)">a</text><text xml:space="preserve" font-family="Helvetica-Light,Helvetica" font-size="34.2" fill="#000000" transform="matrix(1.00, 0.00, -0.00, -1.00, 500.3, 148.9)">t</text><text xml:space="preserve" font-family="Helvetica-Light,Helvetica" font-size="34.2" fill="#000000" transform="matrix(1.00, 0.00, -0.00, -1.00, 509.8, 148.9)">e</text><text xml:space="preserve" font-family="Helvetica-Light,Helvetica" font-size="34.2" fill="#000000" transform="matrix(1.00, 0.00, -0.00, -1.00, 528.8, 148.9)"> </text><text xml:space="preserve" font-family="Helvetica-Light,Helvetica" font-size="34.2" fill="#000000" transform="matrix(1.00, 0.00, -0.00, -1.00, 538.4, 148.9)">d</text><text xml:space="preserve" font-family="Helvetica-Light,Helvetica" font-size="34.2" fill="#000000" transform="matrix(1.00, 0.00, -0.00, -1.00, 559.3, 148.9)">a</text><text xml:space="preserve" font-family="Helvetica-Light,Helvetica" font-size="34.2" fill="#000000" transform="matrix(1.00, 0.00, -0.00, -1.00, 578.3, 148.9)"> </text><text xml:space="preserve" font-family="Helvetica-Light,Helvetica" font-size="34.2" fill="#000000" transform="matrix(1.00, 0.00, -0.00, -1.00, 587.8, 148.9)">t</text><text xml:space="preserve" font-family="Helvetica-Light,Helvetica" font-size="34.2" fill="#000000" transform="matrix(1.00, 0.00, -0.00, -1.00, 597.3, 148.9)">a</text><text xml:space="preserve" font-family="Helvetica-Light,Helvetica" font-size="34.2" fill="#000000" transform="matrix(1.00, 0.00, -0.00, -1.00, 616.3, 148.9)">b</text><text xml:space="preserve" font-family="Helvetica-Light,Helvetica" font-size="34.2" fill="#000000" transform="matrix(1.00, 0.00, -0.00, -1.00, 637.2, 148.9)">u</text><text xml:space="preserve" font-family="Helvetica-Light,Helvetica" font-size="34.2" fill="#000000" transform="matrix(1.00, 0.00, -0.00, -1.00, 656.2, 148.9)">l</text><text xml:space="preserve" font-family="Helvetica-Light,Helvetica" font-size="34.2" fill="#000000" transform="matrix(1.00, 0.00, -0.00, -1.00, 663.8, 148.9)">a</text><text xml:space="preserve" font-family="Helvetica-Light,Helvetica" font-size="34.2" fill="#000000" transform="matrix(1.00, 0.00, -0.00, -1.00, 682.8, 148.9)">z</text><text xml:space="preserve" font-family="Helvetica-Light,Helvetica" font-size="34.2" fill="#000000" transform="matrix(1.00, 0.00, -0.00, -1.00, 699.9, 148.9)">i</text><text xml:space="preserve" font-family="Helvetica-Light,Helvetica" font-size="34.2" fill="#000000" transform="matrix(1.00, 0.00, -0.00, -1.00, 707.5, 148.9)">o</text><text xml:space="preserve" font-family="Helvetica-Light,Helvetica" font-size="34.2" fill="#000000" transform="matrix(1.00, 0.00, -0.00, -1.00, 726.5, 148.9)">n</text><text xml:space="preserve" font-family="Helvetica-Light,Helvetica" font-size="34.2" fill="#000000" transform="matrix(1.00, 0.00, -0.00, -1.00, 745.5, 148.9)">i</text></g></svg>