<?xml version="1.0" encoding="UTF-8" standalone="no"?><svg xmlns="http://www.w3.org/2000/svg" xmlns:xlink="http://www.w3.org/1999/xlink" clip-rule="evenodd" stroke-miterlimit="10" viewBox="0 0 1024 768"><desc>SVG generated by Keynote</desc><defs></defs><g transform="matrix(1.00, 0.00, -0.00, -1.00, 0.0, 768.0)"><path d="M 0.0 768.0 L 1024.0 768.0 L 1024.0 0.0 L 0.0 0.0 Z M 0.0 768.0 " fill="#FEFFFF"></path><text xml:space="preserve" font-family="Helvetica-Light,Helvetica" font-size="67.2" fill="#000000" transform="matrix(1.00, 0.00, -0.00, -1.00, 235.0, 399.5)">P</text><text xml:space="preserve" font-family="Helvetica-Light,Helvetica" font-size="67.2" fill="#000000" transform="matrix(1.00, 0.00, -0.00, -1.00, 276.1, 399.5)">e</text><text xml:space="preserve" font-family="Helvetica-Light,Helvetica" font-size="67.2" fill="#000000" transform="matrix(1.00, 0.00, -0.00, -1.00, 313.4, 399.5)">r</text><text xml:space="preserve" font-family="Helvetica-Light,Helvetica" font-size="67.2" fill="#000000" transform="matrix(1.00, 0.00, -0.00, -1.00, 334.6, 399.5)">c</text><text xml:space="preserve" font-family="Helvetica-Light,Helvetica" font-size="67.2" fill="#000000" transform="matrix(1.00, 0.00, -0.00, -1.00, 372.0, 399.5)">h</text><text xml:space="preserve" font-family="Helvetica-Light,Helvetica" font-size="67.2" fill="#000000" transform="matrix(1.00, 0.00, -0.00, -1.00, 409.3, 399.5)">è</text><text xml:space="preserve" font-family="Helvetica-Light,Helvetica" font-size="67.2" fill="#000000" transform="matrix(1.00, 0.00, -0.00, -1.00, 446.7, 399.5)"> </text><text xml:space="preserve" font-family="Helvetica-Light,Helvetica" font-size="67.2" fill="#000000" transform="matrix(1.00, 0.00, -0.00, -1.00, 465.4, 399.5)">i</text><text xml:space="preserve" font-family="Helvetica-Light,Helvetica" font-size="67.2" fill="#000000" transform="matrix(1.00, 0.00, -0.00, -1.00, 480.3, 399.5)">m</text><text xml:space="preserve" font-family="Helvetica-Light,Helvetica" font-size="67.2" fill="#000000" transform="matrix(1.00, 0.00, -0.00, -1.00, 536.3, 399.5)">p</text><text xml:space="preserve" font-family="Helvetica-Light,Helvetica" font-size="67.2" fill="#000000" transform="matrix(1.00, 0.00, -0.00, -1.00, 577.3, 399.5)">a</text><text xml:space="preserve" font-family="Helvetica-Light,Helvetica" font-size="67.2" fill="#000000" transform="matrix(1.00, 0.00, -0.00, -1.00, 614.7, 399.5)">r</text><text xml:space="preserve" font-family="Helvetica-Light,Helvetica" font-size="67.2" fill="#000000" transform="matrix(1.00, 0.00, -0.00, -1.00, 637.1, 399.5)">a</text><text xml:space="preserve" font-family="Helvetica-Light,Helvetica" font-size="67.2" fill="#000000" transform="matrix(1.00, 0.00, -0.00, -1.00, 674.4, 399.5)">r</text><text xml:space="preserve" font-family="Helvetica-Light,Helvetica" font-size="67.2" fill="#000000" transform="matrix(1.00, 0.00, -0.00, -1.00, 695.6, 399.5)">e</text><text xml:space="preserve" font-family="Helvetica-Light,Helvetica" font-size="67.2" fill="#000000" transform="matrix(1.00, 0.00, -0.00, -1.00, 733.0, 399.5)"> </text><text xml:space="preserve" font-family="Helvetica-Light,Helvetica" font-size="67.2" fill="#000000" transform="matrix(1.00, 0.00, -0.00, -1.00, 751.6, 399.5)">a</text><text xml:space="preserve" font-family="Helvetica-Light,Helvetica" font-size="67.2" fill="#000000" transform="matrix(1.00, 0.00, -0.00, -1.00, 789.0, 399.5)"> </text><text xml:space="preserve" font-family="Helvetica-Light,Helvetica" font-size="67.2" fill="#000000" transform="matrix(1.00, 0.00, -0.00, -1.00, 291.1, 319.5)">p</text><text xml:space="preserve" font-family="Helvetica-Light,Helvetica" font-size="67.2" fill="#000000" transform="matrix(1.00, 0.00, -0.00, -1.00, 332.1, 319.5)">r</text><text xml:space="preserve" font-family="Helvetica-Light,Helvetica" font-size="67.2" fill="#000000" transform="matrix(1.00, 0.00, -0.00, -1.00, 353.3, 319.5)">o</text><text xml:space="preserve" font-family="Helvetica-Light,Helvetica" font-size="67.2" fill="#000000" transform="matrix(1.00, 0.00, -0.00, -1.00, 390.7, 319.5)">g</text><text xml:space="preserve" font-family="Helvetica-Light,Helvetica" font-size="67.2" fill="#000000" transform="matrix(1.00, 0.00, -0.00, -1.00, 431.7, 319.5)">r</text><text xml:space="preserve" font-family="Helvetica-Light,Helvetica" font-size="67.2" fill="#000000" transform="matrix(1.00, 0.00, -0.00, -1.00, 454.1, 319.5)">a</text><text xml:space="preserve" font-family="Helvetica-Light,Helvetica" font-size="67.2" fill="#000000" transform="matrix(1.00, 0.00, -0.00, -1.00, 491.5, 319.5)">m</text><text xml:space="preserve" font-family="Helvetica-Light,Helvetica" font-size="67.2" fill="#000000" transform="matrix(1.00, 0.00, -0.00, -1.00, 547.4, 319.5)">m</text><text xml:space="preserve" font-family="Helvetica-Light,Helvetica" font-size="67.2" fill="#000000" transform="matrix(1.00, 0.00, -0.00, -1.00, 603.4, 319.5)">a</text><text xml:space="preserve" font-family="Helvetica-Light,Helvetica" font-size="67.2" fill="#000000" transform="matrix(1.00, 0.00, -0.00, -1.00, 640.8, 319.5)">r</text><text xml:space="preserve" font-family="Helvetica-Light,Helvetica" font-size="67.2" fill="#000000" transform="matrix(1.00, 0.00, -0.00, -1.00, 662.0, 319.5)">e</text><text xml:space="preserve" font-family="Helvetica-Light,Helvetica" font-size="67.2" fill="#000000" transform="matrix(1.00, 0.00, -0.00, -1.00, 699.3, 319.5)">?</text></g></svg>