<?xml version="1.0" encoding="UTF-8" standalone="no"?><svg xmlns="http://www.w3.org/2000/svg" xmlns:xlink="http://www.w3.org/1999/xlink" clip-rule="evenodd" stroke-miterlimit="10" viewBox="0 0 1024 768"><desc>SVG generated by Keynote</desc><defs></defs><g transform="matrix(1.00, 0.00, -0.00, -1.00, 0.0, 768.0)"><path d="M 0.0 768.0 L 1024.0 768.0 L 1024.0 0.0 L 0.0 0.0 Z M 0.0 768.0 " fill="#FEFFFF"></path><text xml:space="preserve" font-family="Helvetica-Light,Helvetica" font-size="80.0" fill="#000000" transform="matrix(1.00, 0.00, -0.00, -1.00, 195.6, 618.4)">O</text><text xml:space="preserve" font-family="Helvetica-Light,Helvetica" font-size="80.0" fill="#000000" transform="matrix(1.00, 0.00, -0.00, -1.00, 257.8, 618.4)">r</text><text xml:space="preserve" font-family="Helvetica-Light,Helvetica" font-size="80.0" fill="#000000" transform="matrix(1.00, 0.00, -0.00, -1.00, 283.0, 618.4)">d</text><text xml:space="preserve" font-family="Helvetica-Light,Helvetica" font-size="80.0" fill="#000000" transform="matrix(1.00, 0.00, -0.00, -1.00, 331.9, 618.4)">i</text><text xml:space="preserve" font-family="Helvetica-Light,Helvetica" font-size="80.0" fill="#000000" transform="matrix(1.00, 0.00, -0.00, -1.00, 349.6, 618.4)">n</text><text xml:space="preserve" font-family="Helvetica-Light,Helvetica" font-size="80.0" fill="#000000" transform="matrix(1.00, 0.00, -0.00, -1.00, 394.1, 618.4)">a</text><text xml:space="preserve" font-family="Helvetica-Light,Helvetica" font-size="80.0" fill="#000000" transform="matrix(1.00, 0.00, -0.00, -1.00, 438.6, 618.4)">r</text><text xml:space="preserve" font-family="Helvetica-Light,Helvetica" font-size="80.0" fill="#000000" transform="matrix(1.00, 0.00, -0.00, -1.00, 463.8, 618.4)">e</text><text xml:space="preserve" font-family="Helvetica-Light,Helvetica" font-size="80.0" fill="#000000" transform="matrix(1.00, 0.00, -0.00, -1.00, 508.3, 618.4)"> </text><text xml:space="preserve" font-family="Helvetica-Light,Helvetica" font-size="80.0" fill="#000000" transform="matrix(1.00, 0.00, -0.00, -1.00, 530.5, 618.4)">u</text><text xml:space="preserve" font-family="Helvetica-Light,Helvetica" font-size="80.0" fill="#000000" transform="matrix(1.00, 0.00, -0.00, -1.00, 575.0, 618.4)">n</text><text xml:space="preserve" font-family="Helvetica-Light,Helvetica" font-size="80.0" fill="#000000" transform="matrix(1.00, 0.00, -0.00, -1.00, 619.5, 618.4)">a</text><text xml:space="preserve" font-family="Helvetica-Light,Helvetica" font-size="80.0" fill="#000000" transform="matrix(1.00, 0.00, -0.00, -1.00, 664.0, 618.4)"> </text><text xml:space="preserve" font-family="Helvetica-Light,Helvetica" font-size="80.0" fill="#000000" transform="matrix(1.00, 0.00, -0.00, -1.00, 686.2, 618.4)">l</text><text xml:space="preserve" font-family="Helvetica-Light,Helvetica" font-size="80.0" fill="#000000" transform="matrix(1.00, 0.00, -0.00, -1.00, 704.0, 618.4)">i</text><text xml:space="preserve" font-family="Helvetica-Light,Helvetica" font-size="80.0" fill="#000000" transform="matrix(1.00, 0.00, -0.00, -1.00, 721.7, 618.4)">s</text><text xml:space="preserve" font-family="Helvetica-Light,Helvetica" font-size="80.0" fill="#000000" transform="matrix(1.00, 0.00, -0.00, -1.00, 761.7, 618.4)">t</text><text xml:space="preserve" font-family="Helvetica-Light,Helvetica" font-size="80.0" fill="#000000" transform="matrix(1.00, 0.00, -0.00, -1.00, 784.0, 618.4)">a</text><text xml:space="preserve" font-family="Helvetica-Light,Helvetica" font-size="80.0" fill="#000000" transform="matrix(1.00, 0.00, -0.00, -1.00, 828.4, 618.4)"> </text><path d="M 0.0 0.2 L 953.0 0.2 L 953.0 521.2 L 0.0 521.2 Z M 0.0 0.0 " fill="none" stroke="#85878C" stroke-width="2.00" transform="matrix(1.00, 0.00, 0.00, -1.00, 42.0, 555.2)"></path><text xml:space="preserve" font-family="CourierNewPS-BoldMT,Courier New" font-weight="bold" font-size="31.0" fill="#000000" transform="matrix(1.00, 0.00, -0.00, -1.00, 74.3, 411.8)">l</text><text xml:space="preserve" font-family="CourierNewPS-BoldMT,Courier New" font-weight="bold" font-size="31.0" fill="#000000" transform="matrix(1.00, 0.00, -0.00, -1.00, 92.9, 411.8)"> </text><text xml:space="preserve" font-family="CourierNewPS-BoldMT,Courier New" font-weight="bold" font-size="31.0" fill="#000000" transform="matrix(1.00, 0.00, -0.00, -1.00, 111.5, 411.8)">=</text><text xml:space="preserve" font-family="CourierNewPS-BoldMT,Courier New" font-weight="bold" font-size="31.0" fill="#000000" transform="matrix(1.00, 0.00, -0.00, -1.00, 130.1, 411.8)"> </text><text xml:space="preserve" font-family="CourierNewPS-BoldMT,Courier New" font-weight="bold" font-size="31.0" fill="#000000" transform="matrix(1.00, 0.00, -0.00, -1.00, 148.7, 411.8)">[</text><text xml:space="preserve" font-family="CourierNewPS-BoldMT,Courier New" font-weight="bold" font-size="31.0" fill="#000000" transform="matrix(1.00, 0.00, -0.00, -1.00, 167.3, 411.8)">1</text><text xml:space="preserve" font-family="CourierNewPS-BoldMT,Courier New" font-weight="bold" font-size="31.0" fill="#000000" transform="matrix(1.00, 0.00, -0.00, -1.00, 185.9, 411.8)">,</text><text xml:space="preserve" font-family="CourierNewPS-BoldMT,Courier New" font-weight="bold" font-size="31.0" fill="#000000" transform="matrix(1.00, 0.00, -0.00, -1.00, 204.5, 411.8)">3</text><text xml:space="preserve" font-family="CourierNewPS-BoldMT,Courier New" font-weight="bold" font-size="31.0" fill="#000000" transform="matrix(1.00, 0.00, -0.00, -1.00, 223.1, 411.8)">,</text><text xml:space="preserve" font-family="CourierNewPS-BoldMT,Courier New" font-weight="bold" font-size="31.0" fill="#000000" transform="matrix(1.00, 0.00, -0.00, -1.00, 241.7, 411.8)">4</text><text xml:space="preserve" font-family="CourierNewPS-BoldMT,Courier New" font-weight="bold" font-size="31.0" fill="#000000" transform="matrix(1.00, 0.00, -0.00, -1.00, 260.3, 411.8)">,</text><text xml:space="preserve" font-family="CourierNewPS-BoldMT,Courier New" font-weight="bold" font-size="31.0" fill="#000000" transform="matrix(1.00, 0.00, -0.00, -1.00, 278.9, 411.8)">6</text><text xml:space="preserve" font-family="CourierNewPS-BoldMT,Courier New" font-weight="bold" font-size="31.0" fill="#000000" transform="matrix(1.00, 0.00, -0.00, -1.00, 297.5, 411.8)">,</text><text xml:space="preserve" font-family="CourierNewPS-BoldMT,Courier New" font-weight="bold" font-size="31.0" fill="#000000" transform="matrix(1.00, 0.00, -0.00, -1.00, 316.1, 411.8)">3</text><text xml:space="preserve" font-family="CourierNewPS-BoldMT,Courier New" font-weight="bold" font-size="31.0" fill="#000000" transform="matrix(1.00, 0.00, -0.00, -1.00, 334.7, 411.8)">1</text><text xml:space="preserve" font-family="CourierNewPS-BoldMT,Courier New" font-weight="bold" font-size="31.0" fill="#000000" transform="matrix(1.00, 0.00, -0.00, -1.00, 353.4, 411.8)">2</text><text xml:space="preserve" font-family="CourierNewPS-BoldMT,Courier New" font-weight="bold" font-size="31.0" fill="#000000" transform="matrix(1.00, 0.00, -0.00, -1.00, 372.0, 411.8)">4</text><text xml:space="preserve" font-family="CourierNewPS-BoldMT,Courier New" font-weight="bold" font-size="31.0" fill="#000000" transform="matrix(1.00, 0.00, -0.00, -1.00, 390.6, 411.8)">,</text><text xml:space="preserve" font-family="CourierNewPS-BoldMT,Courier New" font-weight="bold" font-size="31.0" fill="#000000" transform="matrix(1.00, 0.00, -0.00, -1.00, 409.2, 411.8)">0</text><text xml:space="preserve" font-family="CourierNewPS-BoldMT,Courier New" font-weight="bold" font-size="31.0" fill="#000000" transform="matrix(1.00, 0.00, -0.00, -1.00, 427.8, 411.8)">]</text><text xml:space="preserve" font-family="CourierNewPS-BoldMT,Courier New" font-weight="bold" font-size="31.0" fill="#000000" transform="matrix(1.00, 0.00, -0.00, -1.00, 446.4, 411.8)"> </text><text xml:space="preserve" font-family="CourierNewPS-BoldMT,Courier New" font-weight="bold" font-size="31.0" fill="#000000" transform="matrix(1.00, 0.00, -0.00, -1.00, 74.3, 341.8)">p</text><text xml:space="preserve" font-family="CourierNewPS-BoldMT,Courier New" font-weight="bold" font-size="31.0" fill="#000000" transform="matrix(1.00, 0.00, -0.00, -1.00, 92.9, 341.8)">r</text><text xml:space="preserve" font-family="CourierNewPS-BoldMT,Courier New" font-weight="bold" font-size="31.0" fill="#000000" transform="matrix(1.00, 0.00, -0.00, -1.00, 111.5, 341.8)">i</text><text xml:space="preserve" font-family="CourierNewPS-BoldMT,Courier New" font-weight="bold" font-size="31.0" fill="#000000" transform="matrix(1.00, 0.00, -0.00, -1.00, 130.1, 341.8)">n</text><text xml:space="preserve" font-family="CourierNewPS-BoldMT,Courier New" font-weight="bold" font-size="31.0" fill="#000000" transform="matrix(1.00, 0.00, -0.00, -1.00, 148.7, 341.8)">t</text><text xml:space="preserve" font-family="CourierNewPS-BoldMT,Courier New" font-weight="bold" font-size="31.0" fill="#000000" transform="matrix(1.00, 0.00, -0.00, -1.00, 167.3, 341.8)"> </text><text xml:space="preserve" font-family="CourierNewPS-BoldMT,Courier New" font-weight="bold" font-size="31.0" fill="#000000" transform="matrix(1.00, 0.00, -0.00, -1.00, 185.9, 341.8)">l</text><text xml:space="preserve" font-family="CourierNewPS-BoldMT,Courier New" font-weight="bold" font-size="31.0" fill="#000000" transform="matrix(1.00, 0.00, -0.00, -1.00, 204.5, 341.8)"> </text><text xml:space="preserve" font-family="CourierNewPS-BoldMT,Courier New" font-weight="bold" font-size="31.0" fill="#000000" transform="matrix(1.00, 0.00, -0.00, -1.00, 74.3, 271.8)">l</text><text xml:space="preserve" font-family="CourierNewPS-BoldMT,Courier New" font-weight="bold" font-size="31.0" fill="#000000" transform="matrix(1.00, 0.00, -0.00, -1.00, 92.9, 271.8)">.</text><text xml:space="preserve" font-family="CourierNewPS-BoldMT,Courier New" font-weight="bold" font-size="31.0" fill="#000000" transform="matrix(1.00, 0.00, -0.00, -1.00, 111.5, 271.8)">s</text><text xml:space="preserve" font-family="CourierNewPS-BoldMT,Courier New" font-weight="bold" font-size="31.0" fill="#000000" transform="matrix(1.00, 0.00, -0.00, -1.00, 130.1, 271.8)">o</text><text xml:space="preserve" font-family="CourierNewPS-BoldMT,Courier New" font-weight="bold" font-size="31.0" fill="#000000" transform="matrix(1.00, 0.00, -0.00, -1.00, 148.7, 271.8)">r</text><text xml:space="preserve" font-family="CourierNewPS-BoldMT,Courier New" font-weight="bold" font-size="31.0" fill="#000000" transform="matrix(1.00, 0.00, -0.00, -1.00, 167.3, 271.8)">t</text><text xml:space="preserve" font-family="CourierNewPS-BoldMT,Courier New" font-weight="bold" font-size="31.0" fill="#000000" transform="matrix(1.00, 0.00, -0.00, -1.00, 185.9, 271.8)">(</text><text xml:space="preserve" font-family="CourierNewPS-BoldMT,Courier New" font-weight="bold" font-size="31.0" fill="#000000" transform="matrix(1.00, 0.00, -0.00, -1.00, 204.5, 271.8)">)</text><text xml:space="preserve" font-family="CourierNewPS-BoldMT,Courier New" font-weight="bold" font-size="31.0" fill="#000000" transform="matrix(1.00, 0.00, -0.00, -1.00, 223.1, 271.8)"> </text><text xml:space="preserve" font-family="CourierNewPS-BoldMT,Courier New" font-weight="bold" font-size="31.0" fill="#000000" transform="matrix(1.00, 0.00, -0.00, -1.00, 74.3, 201.8)">p</text><text xml:space="preserve" font-family="CourierNewPS-BoldMT,Courier New" font-weight="bold" font-size="31.0" fill="#000000" transform="matrix(1.00, 0.00, -0.00, -1.00, 92.9, 201.8)">r</text><text xml:space="preserve" font-family="CourierNewPS-BoldMT,Courier New" font-weight="bold" font-size="31.0" fill="#000000" transform="matrix(1.00, 0.00, -0.00, -1.00, 111.5, 201.8)">i</text><text xml:space="preserve" font-family="CourierNewPS-BoldMT,Courier New" font-weight="bold" font-size="31.0" fill="#000000" transform="matrix(1.00, 0.00, -0.00, -1.00, 130.1, 201.8)">n</text><text xml:space="preserve" font-family="CourierNewPS-BoldMT,Courier New" font-weight="bold" font-size="31.0" fill="#000000" transform="matrix(1.00, 0.00, -0.00, -1.00, 148.7, 201.8)">t</text><text xml:space="preserve" font-family="CourierNewPS-BoldMT,Courier New" font-weight="bold" font-size="31.0" fill="#000000" transform="matrix(1.00, 0.00, -0.00, -1.00, 167.3, 201.8)"> </text><text xml:space="preserve" font-family="CourierNewPS-BoldMT,Courier New" font-weight="bold" font-size="31.0" fill="#000000" transform="matrix(1.00, 0.00, -0.00, -1.00, 185.9, 201.8)">l</text></g></svg>