<?xml version="1.0" encoding="UTF-8" standalone="no"?><svg xmlns="http://www.w3.org/2000/svg" xmlns:xlink="http://www.w3.org/1999/xlink" clip-rule="evenodd" stroke-miterlimit="10" viewBox="0 0 1024 768"><desc>SVG generated by Keynote</desc><defs></defs><g transform="matrix(1.00, 0.00, -0.00, -1.00, 0.0, 768.0)"><path d="M 0.0 768.0 L 1024.0 768.0 L 1024.0 0.0 L 0.0 0.0 Z M 0.0 768.0 " fill="#FEFFFF"></path><text xml:space="preserve" font-family="Helvetica-Light,Helvetica" font-size="80.0" fill="#000000" transform="matrix(1.00, 0.00, -0.00, -1.00, 278.6, 618.4)">C</text><text xml:space="preserve" font-family="Helvetica-Light,Helvetica" font-size="80.0" fill="#000000" transform="matrix(1.00, 0.00, -0.00, -1.00, 336.4, 618.4)">o</text><text xml:space="preserve" font-family="Helvetica-Light,Helvetica" font-size="80.0" fill="#000000" transform="matrix(1.00, 0.00, -0.00, -1.00, 380.8, 618.4)">n</text><text xml:space="preserve" font-family="Helvetica-Light,Helvetica" font-size="80.0" fill="#000000" transform="matrix(1.00, 0.00, -0.00, -1.00, 425.3, 618.4)">d</text><text xml:space="preserve" font-family="Helvetica-Light,Helvetica" font-size="80.0" fill="#000000" transform="matrix(1.00, 0.00, -0.00, -1.00, 474.2, 618.4)">i</text><text xml:space="preserve" font-family="Helvetica-Light,Helvetica" font-size="80.0" fill="#000000" transform="matrix(1.00, 0.00, -0.00, -1.00, 492.0, 618.4)">z</text><text xml:space="preserve" font-family="Helvetica-Light,Helvetica" font-size="80.0" fill="#000000" transform="matrix(1.00, 0.00, -0.00, -1.00, 532.0, 618.4)">i</text><text xml:space="preserve" font-family="Helvetica-Light,Helvetica" font-size="80.0" fill="#000000" transform="matrix(1.00, 0.00, -0.00, -1.00, 549.7, 618.4)">o</text><text xml:space="preserve" font-family="Helvetica-Light,Helvetica" font-size="80.0" fill="#000000" transform="matrix(1.00, 0.00, -0.00, -1.00, 594.2, 618.4)">n</text><text xml:space="preserve" font-family="Helvetica-Light,Helvetica" font-size="80.0" fill="#000000" transform="matrix(1.00, 0.00, -0.00, -1.00, 638.7, 618.4)">a</text><text xml:space="preserve" font-family="Helvetica-Light,Helvetica" font-size="80.0" fill="#000000" transform="matrix(1.00, 0.00, -0.00, -1.00, 683.2, 618.4)">l</text><text xml:space="preserve" font-family="Helvetica-Light,Helvetica" font-size="80.0" fill="#000000" transform="matrix(1.00, 0.00, -0.00, -1.00, 700.9, 618.4)">e</text><text xml:space="preserve" font-family="Courier-Bold,Courier" font-weight="bold" font-size="31.3" fill="#000000" transform="matrix(1.00, 0.00, -0.00, -1.00, 79.0, 527.7)">i</text><text xml:space="preserve" font-family="Courier-Bold,Courier" font-weight="bold" font-size="31.3" fill="#000000" transform="matrix(1.00, 0.00, -0.00, -1.00, 97.8, 527.7)">f</text><text xml:space="preserve" font-family="Courier-Bold,Courier" font-weight="bold" font-size="31.3" fill="#000000" transform="matrix(1.00, 0.00, -0.00, -1.00, 116.6, 527.7)"> </text><text xml:space="preserve" font-family="Courier-Bold,Courier" font-weight="bold" font-size="31.3" fill="#000000" transform="matrix(1.00, 0.00, -0.00, -1.00, 135.4, 527.7)">…</text><text xml:space="preserve" font-family="Courier-Bold,Courier" font-weight="bold" font-size="31.3" fill="#000000" transform="matrix(1.00, 0.00, -0.00, -1.00, 154.2, 527.7)"> </text><text xml:space="preserve" font-family="Courier-Bold,Courier" font-weight="bold" font-size="31.3" fill="#000000" transform="matrix(1.00, 0.00, -0.00, -1.00, 173.0, 527.7)">c</text><text xml:space="preserve" font-family="Courier-Bold,Courier" font-weight="bold" font-size="31.3" fill="#000000" transform="matrix(1.00, 0.00, -0.00, -1.00, 191.8, 527.7)">o</text><text xml:space="preserve" font-family="Courier-Bold,Courier" font-weight="bold" font-size="31.3" fill="#000000" transform="matrix(1.00, 0.00, -0.00, -1.00, 210.6, 527.7)">n</text><text xml:space="preserve" font-family="Courier-Bold,Courier" font-weight="bold" font-size="31.3" fill="#000000" transform="matrix(1.00, 0.00, -0.00, -1.00, 229.4, 527.7)">d</text><text xml:space="preserve" font-family="Courier-Bold,Courier" font-weight="bold" font-size="31.3" fill="#000000" transform="matrix(1.00, 0.00, -0.00, -1.00, 248.2, 527.7)">i</text><text xml:space="preserve" font-family="Courier-Bold,Courier" font-weight="bold" font-size="31.3" fill="#000000" transform="matrix(1.00, 0.00, -0.00, -1.00, 267.0, 527.7)">z</text><text xml:space="preserve" font-family="Courier-Bold,Courier" font-weight="bold" font-size="31.3" fill="#000000" transform="matrix(1.00, 0.00, -0.00, -1.00, 285.8, 527.7)">i</text><text xml:space="preserve" font-family="Courier-Bold,Courier" font-weight="bold" font-size="31.3" fill="#000000" transform="matrix(1.00, 0.00, -0.00, -1.00, 304.5, 527.7)">o</text><text xml:space="preserve" font-family="Courier-Bold,Courier" font-weight="bold" font-size="31.3" fill="#000000" transform="matrix(1.00, 0.00, -0.00, -1.00, 323.3, 527.7)">n</text><text xml:space="preserve" font-family="Courier-Bold,Courier" font-weight="bold" font-size="31.3" fill="#000000" transform="matrix(1.00, 0.00, -0.00, -1.00, 342.1, 527.7)">e</text><text xml:space="preserve" font-family="Courier-Bold,Courier" font-weight="bold" font-size="31.3" fill="#000000" transform="matrix(1.00, 0.00, -0.00, -1.00, 360.9, 527.7)"> </text><text xml:space="preserve" font-family="Courier-Bold,Courier" font-weight="bold" font-size="31.3" fill="#000000" transform="matrix(1.00, 0.00, -0.00, -1.00, 379.7, 527.7)">…</text><text xml:space="preserve" font-family="Courier-Bold,Courier" font-weight="bold" font-size="31.3" fill="#000000" transform="matrix(1.00, 0.00, -0.00, -1.00, 398.5, 527.7)">.</text><text xml:space="preserve" font-family="Courier-Bold,Courier" font-weight="bold" font-size="31.3" fill="#000000" transform="matrix(1.00, 0.00, -0.00, -1.00, 417.3, 527.7)">:</text><text xml:space="preserve" font-family="Courier-Bold,Courier" font-weight="bold" font-size="31.3" fill="#000000" transform="matrix(1.00, 0.00, -0.00, -1.00, 79.0, 453.2)">(</text><text xml:space="preserve" font-family="Courier-Bold,Courier" font-weight="bold" font-size="31.3" fill="#000000" transform="matrix(1.00, 0.00, -0.00, -1.00, 97.8, 453.2)">t</text><text xml:space="preserve" font-family="Courier-Bold,Courier" font-weight="bold" font-size="31.3" fill="#000000" transform="matrix(1.00, 0.00, -0.00, -1.00, 116.6, 453.2)">r</text><text xml:space="preserve" font-family="Courier-Bold,Courier" font-weight="bold" font-size="31.3" fill="#000000" transform="matrix(1.00, 0.00, -0.00, -1.00, 135.4, 453.2)">e</text><text xml:space="preserve" font-family="Courier-Bold,Courier" font-weight="bold" font-size="31.3" fill="#000000" transform="matrix(1.00, 0.00, -0.00, -1.00, 154.2, 453.2)"> </text><text xml:space="preserve" font-family="Courier-Bold,Courier" font-weight="bold" font-size="31.3" fill="#000000" transform="matrix(1.00, 0.00, -0.00, -1.00, 173.0, 453.2)">s</text><text xml:space="preserve" font-family="Courier-Bold,Courier" font-weight="bold" font-size="31.3" fill="#000000" transform="matrix(1.00, 0.00, -0.00, -1.00, 191.8, 453.2)">p</text><text xml:space="preserve" font-family="Courier-Bold,Courier" font-weight="bold" font-size="31.3" fill="#000000" transform="matrix(1.00, 0.00, -0.00, -1.00, 210.6, 453.2)">a</text><text xml:space="preserve" font-family="Courier-Bold,Courier" font-weight="bold" font-size="31.3" fill="#000000" transform="matrix(1.00, 0.00, -0.00, -1.00, 229.4, 453.2)">z</text><text xml:space="preserve" font-family="Courier-Bold,Courier" font-weight="bold" font-size="31.3" fill="#000000" transform="matrix(1.00, 0.00, -0.00, -1.00, 248.2, 453.2)">i</text><text xml:space="preserve" font-family="Courier-Bold,Courier" font-weight="bold" font-size="31.3" fill="#000000" transform="matrix(1.00, 0.00, -0.00, -1.00, 267.0, 453.2)">)</text><text xml:space="preserve" font-family="Courier-Bold,Courier" font-weight="bold" font-size="31.3" fill="#000000" transform="matrix(1.00, 0.00, -0.00, -1.00, 285.7, 453.2)"> </text><text xml:space="preserve" font-family="Courier-Bold,Courier" font-weight="bold" font-size="31.3" fill="#000000" transform="matrix(1.00, 0.00, -0.00, -1.00, 304.5, 453.2)">i</text><text xml:space="preserve" font-family="Courier-Bold,Courier" font-weight="bold" font-size="31.3" fill="#000000" transform="matrix(1.00, 0.00, -0.00, -1.00, 323.3, 453.2)">s</text><text xml:space="preserve" font-family="Courier-Bold,Courier" font-weight="bold" font-size="31.3" fill="#000000" transform="matrix(1.00, 0.00, -0.00, -1.00, 342.1, 453.2)">t</text><text xml:space="preserve" font-family="Courier-Bold,Courier" font-weight="bold" font-size="31.3" fill="#000000" transform="matrix(1.00, 0.00, -0.00, -1.00, 360.9, 453.2)">r</text><text xml:space="preserve" font-family="Courier-Bold,Courier" font-weight="bold" font-size="31.3" fill="#000000" transform="matrix(1.00, 0.00, -0.00, -1.00, 379.7, 453.2)">u</text><text xml:space="preserve" font-family="Courier-Bold,Courier" font-weight="bold" font-size="31.3" fill="#000000" transform="matrix(1.00, 0.00, -0.00, -1.00, 398.5, 453.2)">z</text><text xml:space="preserve" font-family="Courier-Bold,Courier" font-weight="bold" font-size="31.3" fill="#000000" transform="matrix(1.00, 0.00, -0.00, -1.00, 417.3, 453.2)">i</text><text xml:space="preserve" font-family="Courier-Bold,Courier" font-weight="bold" font-size="31.3" fill="#000000" transform="matrix(1.00, 0.00, -0.00, -1.00, 436.1, 453.2)">o</text><text xml:space="preserve" font-family="Courier-Bold,Courier" font-weight="bold" font-size="31.3" fill="#000000" transform="matrix(1.00, 0.00, -0.00, -1.00, 454.9, 453.2)">n</text><text xml:space="preserve" font-family="Courier-Bold,Courier" font-weight="bold" font-size="31.3" fill="#000000" transform="matrix(1.00, 0.00, -0.00, -1.00, 473.7, 453.2)">e</text><text xml:space="preserve" font-family="Courier-Bold,Courier" font-weight="bold" font-size="31.3" fill="#000000" transform="matrix(1.00, 0.00, -0.00, -1.00, 492.5, 453.2)">1</text><text xml:space="preserve" font-family="Courier-Bold,Courier" font-weight="bold" font-size="31.3" fill="#000000" transform="matrix(1.00, 0.00, -0.00, -1.00, 79.0, 378.6)">(</text><text xml:space="preserve" font-family="Courier-Bold,Courier" font-weight="bold" font-size="31.3" fill="#000000" transform="matrix(1.00, 0.00, -0.00, -1.00, 97.8, 378.6)">t</text><text xml:space="preserve" font-family="Courier-Bold,Courier" font-weight="bold" font-size="31.3" fill="#000000" transform="matrix(1.00, 0.00, -0.00, -1.00, 116.6, 378.6)">r</text><text xml:space="preserve" font-family="Courier-Bold,Courier" font-weight="bold" font-size="31.3" fill="#000000" transform="matrix(1.00, 0.00, -0.00, -1.00, 135.4, 378.6)">e</text><text xml:space="preserve" font-family="Courier-Bold,Courier" font-weight="bold" font-size="31.3" fill="#000000" transform="matrix(1.00, 0.00, -0.00, -1.00, 154.2, 378.6)"> </text><text xml:space="preserve" font-family="Courier-Bold,Courier" font-weight="bold" font-size="31.3" fill="#000000" transform="matrix(1.00, 0.00, -0.00, -1.00, 173.0, 378.6)">s</text><text xml:space="preserve" font-family="Courier-Bold,Courier" font-weight="bold" font-size="31.3" fill="#000000" transform="matrix(1.00, 0.00, -0.00, -1.00, 191.8, 378.6)">p</text><text xml:space="preserve" font-family="Courier-Bold,Courier" font-weight="bold" font-size="31.3" fill="#000000" transform="matrix(1.00, 0.00, -0.00, -1.00, 210.6, 378.6)">a</text><text xml:space="preserve" font-family="Courier-Bold,Courier" font-weight="bold" font-size="31.3" fill="#000000" transform="matrix(1.00, 0.00, -0.00, -1.00, 229.4, 378.6)">z</text><text xml:space="preserve" font-family="Courier-Bold,Courier" font-weight="bold" font-size="31.3" fill="#000000" transform="matrix(1.00, 0.00, -0.00, -1.00, 248.2, 378.6)">i</text><text xml:space="preserve" font-family="Courier-Bold,Courier" font-weight="bold" font-size="31.3" fill="#000000" transform="matrix(1.00, 0.00, -0.00, -1.00, 267.0, 378.6)">)</text><text xml:space="preserve" font-family="Courier-Bold,Courier" font-weight="bold" font-size="31.3" fill="#000000" transform="matrix(1.00, 0.00, -0.00, -1.00, 285.7, 378.6)"> </text><text xml:space="preserve" font-family="Courier-Bold,Courier" font-weight="bold" font-size="31.3" fill="#000000" transform="matrix(1.00, 0.00, -0.00, -1.00, 304.5, 378.6)">i</text><text xml:space="preserve" font-family="Courier-Bold,Courier" font-weight="bold" font-size="31.3" fill="#000000" transform="matrix(1.00, 0.00, -0.00, -1.00, 323.3, 378.6)">s</text><text xml:space="preserve" font-family="Courier-Bold,Courier" font-weight="bold" font-size="31.3" fill="#000000" transform="matrix(1.00, 0.00, -0.00, -1.00, 342.1, 378.6)">t</text><text xml:space="preserve" font-family="Courier-Bold,Courier" font-weight="bold" font-size="31.3" fill="#000000" transform="matrix(1.00, 0.00, -0.00, -1.00, 360.9, 378.6)">r</text><text xml:space="preserve" font-family="Courier-Bold,Courier" font-weight="bold" font-size="31.3" fill="#000000" transform="matrix(1.00, 0.00, -0.00, -1.00, 379.7, 378.6)">u</text><text xml:space="preserve" font-family="Courier-Bold,Courier" font-weight="bold" font-size="31.3" fill="#000000" transform="matrix(1.00, 0.00, -0.00, -1.00, 398.5, 378.6)">z</text><text xml:space="preserve" font-family="Courier-Bold,Courier" font-weight="bold" font-size="31.3" fill="#000000" transform="matrix(1.00, 0.00, -0.00, -1.00, 417.3, 378.6)">i</text><text xml:space="preserve" font-family="Courier-Bold,Courier" font-weight="bold" font-size="31.3" fill="#000000" transform="matrix(1.00, 0.00, -0.00, -1.00, 436.1, 378.6)">o</text><text xml:space="preserve" font-family="Courier-Bold,Courier" font-weight="bold" font-size="31.3" fill="#000000" transform="matrix(1.00, 0.00, -0.00, -1.00, 454.9, 378.6)">n</text><text xml:space="preserve" font-family="Courier-Bold,Courier" font-weight="bold" font-size="31.3" fill="#000000" transform="matrix(1.00, 0.00, -0.00, -1.00, 473.7, 378.6)">e</text><text xml:space="preserve" font-family="Courier-Bold,Courier" font-weight="bold" font-size="31.3" fill="#000000" transform="matrix(1.00, 0.00, -0.00, -1.00, 492.5, 378.6)">2</text><text xml:space="preserve" font-family="Courier-Bold,Courier" font-weight="bold" font-size="31.3" fill="#000000" transform="matrix(1.00, 0.00, -0.00, -1.00, 79.0, 304.1)">e</text><text xml:space="preserve" font-family="Courier-Bold,Courier" font-weight="bold" font-size="31.3" fill="#000000" transform="matrix(1.00, 0.00, -0.00, -1.00, 97.8, 304.1)">l</text><text xml:space="preserve" font-family="Courier-Bold,Courier" font-weight="bold" font-size="31.3" fill="#000000" transform="matrix(1.00, 0.00, -0.00, -1.00, 116.6, 304.1)">s</text><text xml:space="preserve" font-family="Courier-Bold,Courier" font-weight="bold" font-size="31.3" fill="#000000" transform="matrix(1.00, 0.00, -0.00, -1.00, 135.4, 304.1)">e</text><text xml:space="preserve" font-family="Courier-Bold,Courier" font-weight="bold" font-size="31.3" fill="#000000" transform="matrix(1.00, 0.00, -0.00, -1.00, 154.2, 304.1)">:</text><text xml:space="preserve" font-family="Courier-Bold,Courier" font-weight="bold" font-size="31.3" fill="#000000" transform="matrix(1.00, 0.00, -0.00, -1.00, 79.0, 229.5)">(</text><text xml:space="preserve" font-family="Courier-Bold,Courier" font-weight="bold" font-size="31.3" fill="#000000" transform="matrix(1.00, 0.00, -0.00, -1.00, 97.8, 229.5)">t</text><text xml:space="preserve" font-family="Courier-Bold,Courier" font-weight="bold" font-size="31.3" fill="#000000" transform="matrix(1.00, 0.00, -0.00, -1.00, 116.6, 229.5)">r</text><text xml:space="preserve" font-family="Courier-Bold,Courier" font-weight="bold" font-size="31.3" fill="#000000" transform="matrix(1.00, 0.00, -0.00, -1.00, 135.4, 229.5)">e</text><text xml:space="preserve" font-family="Courier-Bold,Courier" font-weight="bold" font-size="31.3" fill="#000000" transform="matrix(1.00, 0.00, -0.00, -1.00, 154.2, 229.5)"> </text><text xml:space="preserve" font-family="Courier-Bold,Courier" font-weight="bold" font-size="31.3" fill="#000000" transform="matrix(1.00, 0.00, -0.00, -1.00, 173.0, 229.5)">s</text><text xml:space="preserve" font-family="Courier-Bold,Courier" font-weight="bold" font-size="31.3" fill="#000000" transform="matrix(1.00, 0.00, -0.00, -1.00, 191.8, 229.5)">p</text><text xml:space="preserve" font-family="Courier-Bold,Courier" font-weight="bold" font-size="31.3" fill="#000000" transform="matrix(1.00, 0.00, -0.00, -1.00, 210.6, 229.5)">a</text><text xml:space="preserve" font-family="Courier-Bold,Courier" font-weight="bold" font-size="31.3" fill="#000000" transform="matrix(1.00, 0.00, -0.00, -1.00, 229.4, 229.5)">z</text><text xml:space="preserve" font-family="Courier-Bold,Courier" font-weight="bold" font-size="31.3" fill="#000000" transform="matrix(1.00, 0.00, -0.00, -1.00, 248.2, 229.5)">i</text><text xml:space="preserve" font-family="Courier-Bold,Courier" font-weight="bold" font-size="31.3" fill="#000000" transform="matrix(1.00, 0.00, -0.00, -1.00, 267.0, 229.5)">)</text><text xml:space="preserve" font-family="Courier-Bold,Courier" font-weight="bold" font-size="31.3" fill="#000000" transform="matrix(1.00, 0.00, -0.00, -1.00, 285.7, 229.5)"> </text><text xml:space="preserve" font-family="Courier-Bold,Courier" font-weight="bold" font-size="31.3" fill="#000000" transform="matrix(1.00, 0.00, -0.00, -1.00, 304.5, 229.5)">i</text><text xml:space="preserve" font-family="Courier-Bold,Courier" font-weight="bold" font-size="31.3" fill="#000000" transform="matrix(1.00, 0.00, -0.00, -1.00, 323.3, 229.5)">s</text><text xml:space="preserve" font-family="Courier-Bold,Courier" font-weight="bold" font-size="31.3" fill="#000000" transform="matrix(1.00, 0.00, -0.00, -1.00, 342.1, 229.5)">t</text><text xml:space="preserve" font-family="Courier-Bold,Courier" font-weight="bold" font-size="31.3" fill="#000000" transform="matrix(1.00, 0.00, -0.00, -1.00, 360.9, 229.5)">r</text><text xml:space="preserve" font-family="Courier-Bold,Courier" font-weight="bold" font-size="31.3" fill="#000000" transform="matrix(1.00, 0.00, -0.00, -1.00, 379.7, 229.5)">u</text><text xml:space="preserve" font-family="Courier-Bold,Courier" font-weight="bold" font-size="31.3" fill="#000000" transform="matrix(1.00, 0.00, -0.00, -1.00, 398.5, 229.5)">z</text><text xml:space="preserve" font-family="Courier-Bold,Courier" font-weight="bold" font-size="31.3" fill="#000000" transform="matrix(1.00, 0.00, -0.00, -1.00, 417.3, 229.5)">i</text><text xml:space="preserve" font-family="Courier-Bold,Courier" font-weight="bold" font-size="31.3" fill="#000000" transform="matrix(1.00, 0.00, -0.00, -1.00, 436.1, 229.5)">o</text><text xml:space="preserve" font-family="Courier-Bold,Courier" font-weight="bold" font-size="31.3" fill="#000000" transform="matrix(1.00, 0.00, -0.00, -1.00, 454.9, 229.5)">n</text><text xml:space="preserve" font-family="Courier-Bold,Courier" font-weight="bold" font-size="31.3" fill="#000000" transform="matrix(1.00, 0.00, -0.00, -1.00, 473.7, 229.5)">e</text><text xml:space="preserve" font-family="Courier-Bold,Courier" font-weight="bold" font-size="31.3" fill="#000000" transform="matrix(1.00, 0.00, -0.00, -1.00, 492.5, 229.5)"> </text><text xml:space="preserve" font-family="Courier-Bold,Courier" font-weight="bold" font-size="31.3" fill="#000000" transform="matrix(1.00, 0.00, -0.00, -1.00, 511.3, 229.5)">3</text><text xml:space="preserve" font-family="Courier-Bold,Courier" font-weight="bold" font-size="31.3" fill="#000000" transform="matrix(1.00, 0.00, -0.00, -1.00, 79.0, 155.0)">(</text><text xml:space="preserve" font-family="Courier-Bold,Courier" font-weight="bold" font-size="31.3" fill="#000000" transform="matrix(1.00, 0.00, -0.00, -1.00, 97.8, 155.0)">t</text><text xml:space="preserve" font-family="Courier-Bold,Courier" font-weight="bold" font-size="31.3" fill="#000000" transform="matrix(1.00, 0.00, -0.00, -1.00, 116.6, 155.0)">r</text><text xml:space="preserve" font-family="Courier-Bold,Courier" font-weight="bold" font-size="31.3" fill="#000000" transform="matrix(1.00, 0.00, -0.00, -1.00, 135.4, 155.0)">e</text><text xml:space="preserve" font-family="Courier-Bold,Courier" font-weight="bold" font-size="31.3" fill="#000000" transform="matrix(1.00, 0.00, -0.00, -1.00, 154.2, 155.0)"> </text><text xml:space="preserve" font-family="Courier-Bold,Courier" font-weight="bold" font-size="31.3" fill="#000000" transform="matrix(1.00, 0.00, -0.00, -1.00, 173.0, 155.0)">s</text><text xml:space="preserve" font-family="Courier-Bold,Courier" font-weight="bold" font-size="31.3" fill="#000000" transform="matrix(1.00, 0.00, -0.00, -1.00, 191.8, 155.0)">p</text><text xml:space="preserve" font-family="Courier-Bold,Courier" font-weight="bold" font-size="31.3" fill="#000000" transform="matrix(1.00, 0.00, -0.00, -1.00, 210.6, 155.0)">a</text><text xml:space="preserve" font-family="Courier-Bold,Courier" font-weight="bold" font-size="31.3" fill="#000000" transform="matrix(1.00, 0.00, -0.00, -1.00, 229.4, 155.0)">z</text><text xml:space="preserve" font-family="Courier-Bold,Courier" font-weight="bold" font-size="31.3" fill="#000000" transform="matrix(1.00, 0.00, -0.00, -1.00, 248.2, 155.0)">i</text><text xml:space="preserve" font-family="Courier-Bold,Courier" font-weight="bold" font-size="31.3" fill="#000000" transform="matrix(1.00, 0.00, -0.00, -1.00, 267.0, 155.0)">)</text><text xml:space="preserve" font-family="Courier-Bold,Courier" font-weight="bold" font-size="31.3" fill="#000000" transform="matrix(1.00, 0.00, -0.00, -1.00, 285.7, 155.0)"> </text><text xml:space="preserve" font-family="Courier-Bold,Courier" font-weight="bold" font-size="31.3" fill="#000000" transform="matrix(1.00, 0.00, -0.00, -1.00, 304.5, 155.0)">i</text><text xml:space="preserve" font-family="Courier-Bold,Courier" font-weight="bold" font-size="31.3" fill="#000000" transform="matrix(1.00, 0.00, -0.00, -1.00, 323.3, 155.0)">s</text><text xml:space="preserve" font-family="Courier-Bold,Courier" font-weight="bold" font-size="31.3" fill="#000000" transform="matrix(1.00, 0.00, -0.00, -1.00, 342.1, 155.0)">t</text><text xml:space="preserve" font-family="Courier-Bold,Courier" font-weight="bold" font-size="31.3" fill="#000000" transform="matrix(1.00, 0.00, -0.00, -1.00, 360.9, 155.0)">r</text><text xml:space="preserve" font-family="Courier-Bold,Courier" font-weight="bold" font-size="31.3" fill="#000000" transform="matrix(1.00, 0.00, -0.00, -1.00, 379.7, 155.0)">u</text><text xml:space="preserve" font-family="Courier-Bold,Courier" font-weight="bold" font-size="31.3" fill="#000000" transform="matrix(1.00, 0.00, -0.00, -1.00, 398.5, 155.0)">z</text><text xml:space="preserve" font-family="Courier-Bold,Courier" font-weight="bold" font-size="31.3" fill="#000000" transform="matrix(1.00, 0.00, -0.00, -1.00, 417.3, 155.0)">i</text><text xml:space="preserve" font-family="Courier-Bold,Courier" font-weight="bold" font-size="31.3" fill="#000000" transform="matrix(1.00, 0.00, -0.00, -1.00, 436.1, 155.0)">o</text><text xml:space="preserve" font-family="Courier-Bold,Courier" font-weight="bold" font-size="31.3" fill="#000000" transform="matrix(1.00, 0.00, -0.00, -1.00, 454.9, 155.0)">n</text><text xml:space="preserve" font-family="Courier-Bold,Courier" font-weight="bold" font-size="31.3" fill="#000000" transform="matrix(1.00, 0.00, -0.00, -1.00, 473.7, 155.0)">e</text><text xml:space="preserve" font-family="Courier-Bold,Courier" font-weight="bold" font-size="31.3" fill="#000000" transform="matrix(1.00, 0.00, -0.00, -1.00, 492.5, 155.0)"> </text><text xml:space="preserve" font-family="Courier-Bold,Courier" font-weight="bold" font-size="31.3" fill="#000000" transform="matrix(1.00, 0.00, -0.00, -1.00, 511.3, 155.0)">4</text></g></svg>