<?xml version="1.0" encoding="UTF-8" standalone="no"?><svg xmlns="http://www.w3.org/2000/svg" xmlns:xlink="http://www.w3.org/1999/xlink" clip-rule="evenodd" stroke-miterlimit="10" viewBox="0 0 1024 768"><desc>SVG generated by Keynote</desc><defs></defs><g transform="matrix(1.00, 0.00, -0.00, -1.00, 0.0, 768.0)"><path d="M 0.0 768.0 L 1024.0 768.0 L 1024.0 0.0 L 0.0 0.0 Z M 0.0 768.0 " fill="#FEFFFF"></path><text xml:space="preserve" font-family="Helvetica-Light,Helvetica" font-size="80.0" fill="#000000" transform="matrix(1.00, 0.00, -0.00, -1.00, 372.0, 618.4)">V</text><text xml:space="preserve" font-family="Helvetica-Light,Helvetica" font-size="80.0" fill="#000000" transform="matrix(1.00, 0.00, -0.00, -1.00, 416.5, 618.4)">a</text><text xml:space="preserve" font-family="Helvetica-Light,Helvetica" font-size="80.0" fill="#000000" transform="matrix(1.00, 0.00, -0.00, -1.00, 461.0, 618.4)">r</text><text xml:space="preserve" font-family="Helvetica-Light,Helvetica" font-size="80.0" fill="#000000" transform="matrix(1.00, 0.00, -0.00, -1.00, 487.6, 618.4)">i</text><text xml:space="preserve" font-family="Helvetica-Light,Helvetica" font-size="80.0" fill="#000000" transform="matrix(1.00, 0.00, -0.00, -1.00, 505.4, 618.4)">a</text><text xml:space="preserve" font-family="Helvetica-Light,Helvetica" font-size="80.0" fill="#000000" transform="matrix(1.00, 0.00, -0.00, -1.00, 549.8, 618.4)">b</text><text xml:space="preserve" font-family="Helvetica-Light,Helvetica" font-size="80.0" fill="#000000" transform="matrix(1.00, 0.00, -0.00, -1.00, 598.7, 618.4)">i</text><text xml:space="preserve" font-family="Helvetica-Light,Helvetica" font-size="80.0" fill="#000000" transform="matrix(1.00, 0.00, -0.00, -1.00, 616.5, 618.4)">l</text><text xml:space="preserve" font-family="Helvetica-Light,Helvetica" font-size="80.0" fill="#000000" transform="matrix(1.00, 0.00, -0.00, -1.00, 634.2, 618.4)">i</text><text xml:space="preserve" font-family="Helvetica-Light,Helvetica" font-size="57.6" fill="#000000" transform="matrix(1.00, 0.00, -0.00, -1.00, 83.1, 446.6)">A</text><text xml:space="preserve" font-family="Helvetica-Light,Helvetica" font-size="57.6" fill="#000000" transform="matrix(1.00, 0.00, -0.00, -1.00, 121.5, 446.6)">s</text><text xml:space="preserve" font-family="Helvetica-Light,Helvetica" font-size="57.6" fill="#000000" transform="matrix(1.00, 0.00, -0.00, -1.00, 150.3, 446.6)">s</text><text xml:space="preserve" font-family="Helvetica-Light,Helvetica" font-size="57.6" fill="#000000" transform="matrix(1.00, 0.00, -0.00, -1.00, 179.1, 446.6)">e</text><text xml:space="preserve" font-family="Helvetica-Light,Helvetica" font-size="57.6" fill="#000000" transform="matrix(1.00, 0.00, -0.00, -1.00, 211.1, 446.6)">g</text><text xml:space="preserve" font-family="Helvetica-Light,Helvetica" font-size="57.6" fill="#000000" transform="matrix(1.00, 0.00, -0.00, -1.00, 246.3, 446.6)">n</text><text xml:space="preserve" font-family="Helvetica-Light,Helvetica" font-size="57.6" fill="#000000" transform="matrix(1.00, 0.00, -0.00, -1.00, 278.3, 446.6)">a</text><text xml:space="preserve" font-family="Helvetica-Light,Helvetica" font-size="57.6" fill="#000000" transform="matrix(1.00, 0.00, -0.00, -1.00, 310.4, 446.6)">m</text><text xml:space="preserve" font-family="Helvetica-Light,Helvetica" font-size="57.6" fill="#000000" transform="matrix(1.00, 0.00, -0.00, -1.00, 358.4, 446.6)">o</text><text xml:space="preserve" font-family="Helvetica-Light,Helvetica" font-size="57.6" fill="#000000" transform="matrix(1.00, 0.00, -0.00, -1.00, 390.4, 446.6)"> </text><text xml:space="preserve" font-family="Helvetica-Light,Helvetica" font-size="57.6" fill="#000000" transform="matrix(1.00, 0.00, -0.00, -1.00, 406.4, 446.6)">d</text><text xml:space="preserve" font-family="Helvetica-Light,Helvetica" font-size="57.6" fill="#000000" transform="matrix(1.00, 0.00, -0.00, -1.00, 441.6, 446.6)">e</text><text xml:space="preserve" font-family="Helvetica-Light,Helvetica" font-size="57.6" fill="#000000" transform="matrix(1.00, 0.00, -0.00, -1.00, 473.6, 446.6)">i</text><text xml:space="preserve" font-family="Helvetica-Light,Helvetica" font-size="57.6" fill="#000000" transform="matrix(1.00, 0.00, -0.00, -1.00, 486.4, 446.6)"> </text><text xml:space="preserve" font-family="Helvetica-Light,Helvetica" font-size="57.6" fill="#000000" transform="matrix(1.00, 0.00, -0.00, -1.00, 502.4, 446.6)">n</text><text xml:space="preserve" font-family="Helvetica-Light,Helvetica" font-size="57.6" fill="#000000" transform="matrix(1.00, 0.00, -0.00, -1.00, 534.4, 446.6)">o</text><text xml:space="preserve" font-family="Helvetica-Light,Helvetica" font-size="57.6" fill="#000000" transform="matrix(1.00, 0.00, -0.00, -1.00, 566.5, 446.6)">m</text><text xml:space="preserve" font-family="Helvetica-Light,Helvetica" font-size="57.6" fill="#000000" transform="matrix(1.00, 0.00, -0.00, -1.00, 614.4, 446.6)">i</text><text xml:space="preserve" font-family="Helvetica-Light,Helvetica" font-size="57.6" fill="#000000" transform="matrix(1.00, 0.00, -0.00, -1.00, 627.2, 446.6)"> </text><text xml:space="preserve" font-family="Helvetica-Light,Helvetica" font-size="57.6" fill="#000000" transform="matrix(1.00, 0.00, -0.00, -1.00, 643.2, 446.6)">a</text><text xml:space="preserve" font-family="Helvetica-Light,Helvetica" font-size="57.6" fill="#000000" transform="matrix(1.00, 0.00, -0.00, -1.00, 675.3, 446.6)"> </text><text xml:space="preserve" font-family="Helvetica-Light,Helvetica" font-size="57.6" fill="#000000" transform="matrix(1.00, 0.00, -0.00, -1.00, 691.3, 446.6)">d</text><text xml:space="preserve" font-family="Helvetica-Light,Helvetica" font-size="57.6" fill="#000000" transform="matrix(1.00, 0.00, -0.00, -1.00, 726.5, 446.6)">e</text><text xml:space="preserve" font-family="Helvetica-Light,Helvetica" font-size="57.6" fill="#000000" transform="matrix(1.00, 0.00, -0.00, -1.00, 758.5, 446.6)">i</text><text xml:space="preserve" font-family="Helvetica-Light,Helvetica" font-size="57.6" fill="#000000" transform="matrix(1.00, 0.00, -0.00, -1.00, 771.3, 446.6)"> </text><text xml:space="preserve" font-family="Helvetica-Light,Helvetica" font-size="57.6" fill="#000000" transform="matrix(1.00, 0.00, -0.00, -1.00, 787.3, 446.6)">v</text><text xml:space="preserve" font-family="Helvetica-Light,Helvetica" font-size="57.6" fill="#000000" transform="matrix(1.00, 0.00, -0.00, -1.00, 816.1, 446.6)">a</text><text xml:space="preserve" font-family="Helvetica-Light,Helvetica" font-size="57.6" fill="#000000" transform="matrix(1.00, 0.00, -0.00, -1.00, 848.1, 446.6)">l</text><text xml:space="preserve" font-family="Helvetica-Light,Helvetica" font-size="57.6" fill="#000000" transform="matrix(1.00, 0.00, -0.00, -1.00, 860.9, 446.6)">o</text><text xml:space="preserve" font-family="Helvetica-Light,Helvetica" font-size="57.6" fill="#000000" transform="matrix(1.00, 0.00, -0.00, -1.00, 892.9, 446.6)">r</text><text xml:space="preserve" font-family="Helvetica-Light,Helvetica" font-size="57.6" fill="#000000" transform="matrix(1.00, 0.00, -0.00, -1.00, 912.1, 446.6)">i</text><text xml:space="preserve" font-family="Helvetica-Light,Helvetica" font-size="57.6" fill="#000000" transform="matrix(1.00, 0.00, -0.00, -1.00, 924.9, 446.6)">,</text><text xml:space="preserve" font-family="Helvetica-Light,Helvetica" font-size="57.6" fill="#000000" transform="matrix(1.00, 0.00, -0.00, -1.00, 940.9, 446.6)"> </text><text xml:space="preserve" font-family="Helvetica-Light,Helvetica" font-size="57.6" fill="#000000" transform="matrix(1.00, 0.00, -0.00, -1.00, 166.8, 378.6)">p</text><text xml:space="preserve" font-family="Helvetica-Light,Helvetica" font-size="57.6" fill="#000000" transform="matrix(1.00, 0.00, -0.00, -1.00, 202.0, 378.6)">e</text><text xml:space="preserve" font-family="Helvetica-Light,Helvetica" font-size="57.6" fill="#000000" transform="matrix(1.00, 0.00, -0.00, -1.00, 234.0, 378.6)">r</text><text xml:space="preserve" font-family="Helvetica-Light,Helvetica" font-size="57.6" fill="#000000" transform="matrix(1.00, 0.00, -0.00, -1.00, 253.2, 378.6)"> </text><text xml:space="preserve" font-family="Helvetica-Light,Helvetica" font-size="57.6" fill="#000000" transform="matrix(1.00, 0.00, -0.00, -1.00, 269.2, 378.6)">s</text><text xml:space="preserve" font-family="Helvetica-Light,Helvetica" font-size="57.6" fill="#000000" transform="matrix(1.00, 0.00, -0.00, -1.00, 298.0, 378.6)">a</text><text xml:space="preserve" font-family="Helvetica-Light,Helvetica" font-size="57.6" fill="#000000" transform="matrix(1.00, 0.00, -0.00, -1.00, 330.0, 378.6)">p</text><text xml:space="preserve" font-family="Helvetica-Light,Helvetica" font-size="57.6" fill="#000000" transform="matrix(1.00, 0.00, -0.00, -1.00, 365.2, 378.6)">e</text><text xml:space="preserve" font-family="Helvetica-Light,Helvetica" font-size="57.6" fill="#000000" transform="matrix(1.00, 0.00, -0.00, -1.00, 397.3, 378.6)">r</text><text xml:space="preserve" font-family="Helvetica-Light,Helvetica" font-size="57.6" fill="#000000" transform="matrix(1.00, 0.00, -0.00, -1.00, 415.4, 378.6)">e</text><text xml:space="preserve" font-family="Helvetica-Light,Helvetica" font-size="57.6" fill="#000000" transform="matrix(1.00, 0.00, -0.00, -1.00, 447.4, 378.6)"> </text><text xml:space="preserve" font-family="Helvetica-Light,Helvetica" font-size="57.6" fill="#000000" transform="matrix(1.00, 0.00, -0.00, -1.00, 463.4, 378.6)">d</text><text xml:space="preserve" font-family="Helvetica-Light,Helvetica" font-size="57.6" fill="#000000" transform="matrix(1.00, 0.00, -0.00, -1.00, 498.6, 378.6)">i</text><text xml:space="preserve" font-family="Helvetica-Light,Helvetica" font-size="57.6" fill="#000000" transform="matrix(1.00, 0.00, -0.00, -1.00, 511.4, 378.6)"> </text><text xml:space="preserve" font-family="Helvetica-Light,Helvetica" font-size="57.6" fill="#000000" transform="matrix(1.00, 0.00, -0.00, -1.00, 527.4, 378.6)">c</text><text xml:space="preserve" font-family="Helvetica-Light,Helvetica" font-size="57.6" fill="#000000" transform="matrix(1.00, 0.00, -0.00, -1.00, 559.5, 378.6)">o</text><text xml:space="preserve" font-family="Helvetica-Light,Helvetica" font-size="57.6" fill="#000000" transform="matrix(1.00, 0.00, -0.00, -1.00, 591.5, 378.6)">s</text><text xml:space="preserve" font-family="Helvetica-Light,Helvetica" font-size="57.6" fill="#000000" transform="matrix(1.00, 0.00, -0.00, -1.00, 620.3, 378.6)">a</text><text xml:space="preserve" font-family="Helvetica-Light,Helvetica" font-size="57.6" fill="#000000" transform="matrix(1.00, 0.00, -0.00, -1.00, 652.3, 378.6)"> </text><text xml:space="preserve" font-family="Helvetica-Light,Helvetica" font-size="57.6" fill="#000000" transform="matrix(1.00, 0.00, -0.00, -1.00, 668.3, 378.6)">s</text><text xml:space="preserve" font-family="Helvetica-Light,Helvetica" font-size="57.6" fill="#000000" transform="matrix(1.00, 0.00, -0.00, -1.00, 697.1, 378.6)">i</text><text xml:space="preserve" font-family="Helvetica-Light,Helvetica" font-size="57.6" fill="#000000" transform="matrix(1.00, 0.00, -0.00, -1.00, 709.9, 378.6)"> </text><text xml:space="preserve" font-family="Helvetica-Light,Helvetica" font-size="57.6" fill="#000000" transform="matrix(1.00, 0.00, -0.00, -1.00, 725.9, 378.6)">t</text><text xml:space="preserve" font-family="Helvetica-Light,Helvetica" font-size="57.6" fill="#000000" transform="matrix(1.00, 0.00, -0.00, -1.00, 741.9, 378.6)">r</text><text xml:space="preserve" font-family="Helvetica-Light,Helvetica" font-size="57.6" fill="#000000" transform="matrix(1.00, 0.00, -0.00, -1.00, 761.1, 378.6)">a</text><text xml:space="preserve" font-family="Helvetica-Light,Helvetica" font-size="57.6" fill="#000000" transform="matrix(1.00, 0.00, -0.00, -1.00, 793.1, 378.6)">t</text><text xml:space="preserve" font-family="Helvetica-Light,Helvetica" font-size="57.6" fill="#000000" transform="matrix(1.00, 0.00, -0.00, -1.00, 809.2, 378.6)">t</text><text xml:space="preserve" font-family="Helvetica-Light,Helvetica" font-size="57.6" fill="#000000" transform="matrix(1.00, 0.00, -0.00, -1.00, 825.2, 378.6)">a</text></g></svg>